<svg width="255" height="255" viewBox="0 0 255 255" fill="none" xmlns="http://www.w3.org/2000/svg">
<path d="M127.5 0C57.1965 0 0 57.1965 0 127.5C0 197.803 57.1965 255 127.5 255C197.803 255 255 197.803 255 127.5C255 57.1965 197.803 0 127.5 0ZM127.5 235C63.5866 235 20 191.412 20 127.5C20 63.5877 63.5866 20 127.5 20C191.413 20 235 63.5877 235 127.5C235 191.412 191.413 235 127.5 235Z" fill="white"/>
<path d="M102 130H142.763L153 124H112.237L102 130Z" fill="white"/>
<path d="M126.661 194.713C125.864 194.713 125.074 194.701 124.275 194.675C110.286 194.23 98.8733 188.977 93.7454 180.622C89.5897 173.855 89.5435 163.868 101.865 156.142L113.258 149H73.5765C61.3206 160.072 58.5039 174.115 66.5287 187.191C75.7808 202.263 97.3423 212.13 122.782 212.938C124.066 212.979 125.361 213 126.661 213C168.204 213 202 191.808 202 165.762H172.837C172.837 181.725 152.123 194.713 126.661 194.713Z" fill="white"/>
<path d="M128.338 60.2857C129.135 60.2857 129.925 60.2979 130.725 60.3238C144.713 60.7688 156.126 66.0213 161.254 74.3764C165.409 81.1436 165.456 91.1307 153.134 98.8564L141.741 106H181.423C193.678 94.928 196.497 80.8846 188.47 67.8088C179.218 52.7368 157.657 42.8701 132.217 42.0625C130.931 42.0213 129.638 42 128.338 42C86.7953 42 53 63.1916 53 89.2381H82.1632C82.1632 73.2731 102.876 60.2857 128.338 60.2857Z" fill="white"/>
<path d="M195 133H58V146H195V133Z" fill="white"/>
<path d="M195 109H58V121H195V109Z" fill="white"/>
</svg>
