<svg width="431" height="514" viewBox="0 0 431 514" fill="none" xmlns="http://www.w3.org/2000/svg">
<g clip-path="url(#clip0_350_193)">
<path d="M166.93 421.872C158.354 413.021 145.926 407.945 132.833 407.945L132.328 407.946C123.704 407.949 115.234 405.66 107.784 401.313L107.009 400.861L107.633 400.217C111.014 396.717 113.836 392.718 116.002 388.36C114.464 389.795 112.629 390.875 110.628 391.522C108.626 392.168 106.507 392.367 104.421 392.104C102.218 391.841 100.103 391.083 98.2347 389.885C96.3665 388.688 94.7936 387.082 93.6338 385.19C89.0577 377.76 83.6028 367.217 83.6028 359.185C83.6099 352.396 85.0303 345.683 87.7735 339.474C90.5167 333.265 94.5225 327.696 99.5356 323.122C102.709 320.259 105.244 316.758 106.975 312.848C108.706 308.938 109.594 304.707 109.582 300.431L109.579 299.822C109.578 294.192 110.266 288.583 111.626 283.12L111.764 282.568L112.332 282.588C115.989 282.713 119.649 282.406 123.234 281.674C119.871 281.261 116.581 280.385 113.456 279.071L112.846 278.824L113.053 278.199C127.328 269.354 159.549 273.934 178.251 231.114C193.416 196.393 246.923 261.936 246.923 299.822C246.923 303.688 243.1 308.796 245.962 311.351C276.9 338.972 255.553 356.709 248.823 374.556C247.226 378.79 250.689 383.439 250.689 388.02C250.689 388.797 250.669 389.6 250.63 390.405L250.57 391.642L249.539 390.956C247.498 389.618 245.606 388.065 243.896 386.324C245.67 390.41 246.507 394.842 246.343 399.294C246.18 403.746 245.021 408.104 242.952 412.049C239.71 418.173 236.573 422.557 233.629 425.078C224.199 433.154 212.041 437.32 199.643 436.724C187.246 436.128 175.543 430.815 166.93 421.872H166.93Z" fill="#E6E6E6"/>
<path d="M218.727 514C218.937 514 219.141 513.923 219.3 513.785C219.459 513.647 219.563 513.455 219.593 513.247C219.63 512.985 223.277 486.667 220.002 451.688C216.977 419.385 207.264 372.857 178.168 334.645C178.099 334.553 178.012 334.476 177.912 334.418C177.813 334.36 177.703 334.322 177.589 334.306C177.474 334.291 177.358 334.298 177.247 334.327C177.136 334.357 177.031 334.408 176.94 334.478C176.848 334.548 176.771 334.635 176.713 334.735C176.655 334.834 176.618 334.944 176.602 335.058C176.587 335.173 176.594 335.289 176.624 335.4C176.653 335.512 176.704 335.616 176.774 335.708C205.619 373.59 215.254 419.777 218.257 451.852C221.513 486.627 217.895 512.74 217.858 512.999C217.84 513.124 217.85 513.251 217.885 513.371C217.921 513.492 217.982 513.603 218.064 513.698C218.147 513.793 218.248 513.869 218.363 513.921C218.477 513.973 218.601 514 218.727 514V514Z" fill="#3F3D56"/>
<path d="M194.982 388.545C195.167 388.545 195.348 388.487 195.498 388.378C195.648 388.269 195.759 388.116 195.816 387.94C195.874 387.764 195.874 387.574 195.817 387.398C195.759 387.221 195.648 387.068 195.498 386.959C187.208 381.343 178.251 376.781 168.836 373.377C154.125 367.987 131.756 363.101 108.728 370.436C108.618 370.471 108.516 370.527 108.428 370.601C108.339 370.675 108.267 370.766 108.214 370.868C108.161 370.971 108.128 371.083 108.118 371.197C108.109 371.312 108.122 371.428 108.156 371.538C108.191 371.648 108.248 371.75 108.322 371.838C108.396 371.926 108.487 371.998 108.59 372.051C108.692 372.104 108.804 372.136 108.919 372.146C109.034 372.155 109.149 372.142 109.259 372.107C131.816 364.923 153.78 369.728 168.233 375.024C177.497 378.369 186.31 382.855 194.468 388.378C194.617 388.487 194.798 388.545 194.982 388.545V388.545Z" fill="#3F3D56"/>
<path d="M235.088 288.585C235.102 288.4 235.056 288.216 234.959 288.058C234.861 287.901 234.716 287.779 234.545 287.709C234.373 287.639 234.184 287.625 234.005 287.67C233.825 287.714 233.664 287.814 233.544 287.956C227.35 295.826 222.158 304.437 218.087 313.59C211.656 327.885 205.175 349.86 210.827 373.373C210.854 373.485 210.903 373.591 210.97 373.684C211.038 373.778 211.123 373.857 211.221 373.917C211.32 373.977 211.429 374.017 211.542 374.035C211.656 374.053 211.772 374.049 211.884 374.022C211.996 373.995 212.102 373.946 212.195 373.878C212.288 373.811 212.367 373.725 212.427 373.627C212.487 373.528 212.527 373.419 212.545 373.305C212.563 373.191 212.558 373.075 212.531 372.963C206.995 349.931 213.366 328.355 219.685 314.31C223.687 305.304 228.793 296.831 234.884 289.086C235.004 288.945 235.075 288.769 235.088 288.585V288.585Z" fill="#3F3D56"/>
<path d="M404.109 513.072H334.352L334.052 512.527C333.16 510.908 332.299 509.193 331.494 507.431C324.309 492.036 321.272 474.43 318.592 458.896L316.574 447.187C316.329 445.769 316.514 444.31 317.102 442.997C317.691 441.685 318.658 440.578 319.88 439.818C321.101 439.059 322.521 438.681 323.958 438.734C325.395 438.787 326.784 439.267 327.946 440.114C338.547 447.834 349.153 455.546 359.762 463.251C363.779 466.176 368.367 469.561 372.761 473.22C373.185 471.16 373.628 469.093 374.072 467.055C374.378 465.648 375.096 464.365 376.135 463.369C377.174 462.372 378.486 461.709 379.904 461.464C381.322 461.219 382.781 461.402 384.094 461.992C385.407 462.581 386.514 463.548 387.274 464.771L395.436 477.893C401.389 487.476 406.642 496.919 405.572 507.104C405.577 507.228 405.568 507.352 405.544 507.474C405.33 509.147 404.933 510.791 404.36 512.377L404.109 513.072Z" fill="#F0F0F0"/>
<path d="M371.61 238.629L358.147 188.764C357.571 186.653 356.188 184.854 354.297 183.754C352.406 182.654 350.159 182.343 348.041 182.886V182.886C346.945 183.168 345.918 183.669 345.022 184.361C344.127 185.052 343.381 185.919 342.831 186.908C342.281 187.897 341.938 188.988 341.822 190.114C341.707 191.241 341.823 192.379 342.162 193.459L357.733 244.828L365.88 276.441C364.693 277.347 363.814 278.597 363.363 280.021C362.911 281.445 362.908 282.974 363.354 284.399C363.801 285.825 364.675 287.078 365.859 287.989C367.042 288.9 368.476 289.425 369.968 289.491C371.459 289.558 372.935 289.164 374.195 288.362C375.454 287.56 376.436 286.389 377.008 285.009C377.58 283.629 377.713 282.106 377.39 280.648C377.067 279.189 376.302 277.866 375.201 276.857L371.61 238.629Z" fill="#A0616A"/>
<path d="M258.324 227.89L299.229 196.387C300.958 195.047 302.091 193.081 302.384 190.912C302.677 188.743 302.106 186.546 300.795 184.795V184.795C300.117 183.889 299.261 183.131 298.28 182.567C297.3 182.002 296.214 181.644 295.09 181.513C293.967 181.382 292.828 181.482 291.744 181.806C290.66 182.13 289.653 182.671 288.785 183.397L247.298 217.425L221.217 237.038C219.926 236.287 218.436 235.952 216.948 236.078C215.461 236.204 214.048 236.785 212.902 237.743C211.757 238.701 210.933 239.988 210.544 241.431C210.155 242.873 210.219 244.4 210.727 245.805C211.235 247.209 212.163 248.423 213.385 249.282C214.607 250.14 216.063 250.602 217.556 250.603C219.049 250.604 220.506 250.146 221.73 249.289C222.953 248.433 223.883 247.221 224.394 245.817L258.324 227.89Z" fill="#A0616A"/>
<path d="M291.663 235.132L289.86 275.43L346.474 263.116C341.655 246.924 338.379 244.162 342 232.893L291.663 235.132Z" fill="#A0616A"/>
<path d="M326.474 161.254H307.61L299.509 175.127L295.649 174.914C293.761 174.809 291.871 175.091 290.096 175.742C288.321 176.394 286.697 177.4 285.323 178.701C283.95 180.002 282.856 181.569 282.108 183.307C281.361 185.045 280.975 186.917 280.975 188.809V188.809L285.731 196.186C285.731 196.186 277.225 211.021 289.478 218.319C289.478 218.319 287.293 232.069 289.478 231.921C291.663 231.774 296.697 228.975 291.663 231.774C286.63 234.572 287.005 234.948 287.656 235.599L288.308 236.251L341.236 245.145C341.236 245.145 342.785 234.877 342.951 233.045C343.118 231.214 342 235.691 343.118 231.214C344.237 226.736 345.915 228.415 344.237 226.736C342.559 225.057 355.108 204.255 349.952 196.186L358.219 188.117C358.219 180.377 345.797 174.103 338.062 174.103H337.072L326.474 161.254Z" fill="#E6E6E6"/>
<path d="M281.023 497.536H273.388L269.755 468.065L281.024 468.065L281.023 497.536Z" fill="#A0616A"/>
<path d="M257.978 508.809C257.982 509.665 258.323 510.485 258.927 511.091C259.531 511.697 260.35 512.04 261.205 512.045H275.578L276.023 511.122L278.056 506.924L278.844 511.122L279.018 512.045H284.439L284.362 511.115L282.916 493.767L281.025 493.651L272.854 493.167L270.847 493.044V498.224C269.324 499.845 257.371 505.974 257.978 508.809Z" fill="#2F2E41"/>
<path d="M394.495 477.523L388.074 481.657L369.086 458.838L378.563 452.737L394.495 477.523Z" fill="#A0616A"/>
<path d="M381.209 499.481C381.675 500.198 382.405 500.703 383.241 500.886C384.076 501.068 384.95 500.913 385.673 500.455L397.76 492.673L397.635 491.655L397.076 487.024L400.007 490.128L400.653 490.811L405.213 487.875L404.645 487.135L394.05 473.328L392.397 474.254L385.263 478.271L383.509 479.254L386.309 483.611C385.905 485.799 379.166 497.425 381.209 499.481Z" fill="#2F2E41"/>
<path d="M430.112 513.61L193.691 513.841C193.455 513.839 193.23 513.745 193.063 513.577C192.897 513.41 192.803 513.183 192.803 512.947C192.803 512.711 192.897 512.485 193.063 512.317C193.23 512.15 193.455 512.055 193.691 512.054L430.112 511.823C430.348 511.825 430.574 511.919 430.74 512.087C430.907 512.254 431 512.481 431 512.717C431 512.953 430.907 513.179 430.74 513.347C430.574 513.514 430.348 513.609 430.112 513.61V513.61Z" fill="#CACACA"/>
<path d="M345.587 258.564C345.587 258.564 309.398 277.72 290.257 264.651C290.257 264.651 286.07 284.945 284.392 286.624C282.715 288.303 280.041 289.034 281.937 290.907C283.833 292.78 284.889 295.31 281.285 298.523C277.681 301.735 274.087 300.716 277.562 304.024C281.037 307.332 267.054 388.488 267.054 388.488C267.054 388.488 269.292 463.959 267.054 466.242C264.817 468.524 261.827 469.035 264.72 471.858C267.614 474.681 267.614 472.492 267.614 476.385V480.278L268.938 484.147H287.097C287.097 484.147 291.48 479.053 287.097 474.628C282.715 470.203 288.431 468.993 289.767 464.841C291.104 460.689 293.341 465.166 291.104 460.689C288.867 456.211 287.792 457.063 287.77 454.118C287.748 451.174 320.747 335.877 320.747 335.877L324.743 399.692L372.817 469.581L386.968 458.96C386.968 458.96 376.665 444.447 379.074 442.452C381.483 440.456 371.974 437.954 374.972 435.703C377.971 433.453 370.752 431.184 373.473 428.201C376.194 425.217 369.725 417.698 365.976 417.698C362.228 417.698 356.967 405.163 356.967 405.163L364.82 306.138L345.587 258.564Z" fill="#2F2E41"/>
<path d="M307.23 120.521C306.974 120.857 304.934 120.676 302.48 120.318C297.629 119.609 296.968 120.451 293.341 123.752C288.088 128.535 291.075 157.702 288.493 164.022L287.659 164.637C289.313 164.321 290.938 163.866 292.516 163.277C293.407 160.463 294.301 157.639 295.201 154.827C296.05 157.015 296.584 159.313 296.787 161.651C298.036 161.159 299.277 159.954 304.495 158.338C307.123 156.554 326.133 154.761 328.577 153.976C334.779 132.858 324.784 124.318 307.23 120.521Z" fill="#2F2E41"/>
<path d="M313.649 153.085C323.681 153.085 331.815 144.946 331.815 134.906C331.815 124.866 323.681 116.727 313.649 116.727C303.616 116.727 295.483 124.866 295.483 134.906C295.483 144.946 303.616 153.085 313.649 153.085Z" fill="#A0616A"/>
<path d="M325.086 118.919C324.062 118.768 323.076 118.422 322.182 117.9C321.739 117.632 321.38 117.245 321.147 116.783C320.913 116.321 320.814 115.802 320.86 115.286C321.084 113.994 322.544 113.223 323.851 113.302C325.153 113.49 326.39 113.991 327.456 114.762C327.339 113.513 326.806 112.341 325.943 111.432C325.08 110.523 323.936 109.931 322.697 109.751C324.416 109.658 326.204 109.576 327.795 110.238C329.385 110.9 330.71 112.539 330.423 114.239C333.097 113.894 335.734 115.758 336.838 118.22C337.941 120.681 337.723 123.571 336.841 126.12C336.754 126.511 336.584 126.878 336.343 127.197C336.102 127.516 335.795 127.779 335.443 127.969C334.543 128.311 333.575 127.738 332.795 127.173C328.722 124.222 325.016 120.796 321.753 116.967" fill="#2F2E41"/>
<path d="M333.006 154.234C332.236 154.596 332.637 155.946 332.038 156.551C331.779 156.807 331.465 157.002 331.121 157.122C331.031 155.995 330.769 154.889 330.344 153.842C330.266 153.651 330.137 153.439 329.936 153.456C329.701 153.484 329.639 153.791 329.634 154.021C329.586 155.159 329.334 156.28 328.89 157.329C328.884 157.34 328.878 157.357 328.873 157.368C328.699 157.362 328.521 157.357 328.353 157.351C327.055 157.301 324.18 153.965 323.543 155.095C325.791 151.105 328.532 145.105 328.951 140.543C329.097 139.588 329.026 138.613 328.744 137.689C328.597 137.229 328.321 136.821 327.95 136.514C327.578 136.206 327.126 136.012 326.647 135.954C326.411 135.943 326.175 135.985 325.957 136.076C325.738 136.167 325.543 136.305 325.384 136.48C325.226 136.656 325.108 136.864 325.039 137.09C324.97 137.317 324.952 137.556 324.986 137.79L324.661 137.745C321.652 135.294 324.248 131.034 320.746 129.35C319.561 128.779 312.301 130.687 311.02 130.351C310.993 129.001 310.718 127.668 310.209 126.417C310.131 126.226 310.002 126.014 309.801 126.031C309.566 126.059 309.505 126.366 309.499 126.596C309.452 127.734 309.2 128.855 308.755 129.904C306.981 129.652 305.174 129.747 303.436 130.183C301.904 130.586 300.45 131.281 298.912 131.65C298.151 131.883 297.351 131.959 296.561 131.872C295.771 131.785 295.006 131.538 294.314 131.146C292.362 129.836 292.021 126.937 292.994 124.799C293.699 123.427 294.65 122.198 295.802 121.172C296.68 120.322 297.592 119.504 298.503 118.687C299.32 117.954 300.136 117.221 300.953 116.488C301.981 115.52 303.076 114.626 304.23 113.812C306.073 112.604 308.144 111.784 310.314 111.405C312.485 111.026 314.71 111.095 316.854 111.607C319.426 112.223 322.866 111.355 325.221 112.559C326.451 113.191 329.175 115.615 330.254 116.477C333.017 118.676 331.148 116.884 334.169 118.156C341.375 121.188 338.189 151.792 333.006 154.234Z" fill="#2F2E41"/>
<path d="M131.868 286.92C194.087 286.92 244.526 236.445 244.526 174.181C244.526 111.917 194.087 61.442 131.868 61.442C69.6489 61.442 19.2102 111.917 19.2102 174.181C19.2102 236.445 69.6489 286.92 131.868 286.92Z" fill="white"/>
<path d="M131.868 288.045C69.1284 288.045 18.0857 236.966 18.0857 174.181C18.0857 111.396 69.1284 60.3165 131.868 60.3165C194.608 60.3165 245.651 111.396 245.651 174.181C245.651 236.966 194.608 288.045 131.868 288.045ZM131.868 62.5672C70.3686 62.5672 20.3348 112.637 20.3348 174.181C20.3348 235.725 70.3686 285.794 131.868 285.794C193.368 285.794 243.402 235.725 243.402 174.181C243.402 112.637 193.368 62.5672 131.868 62.5672Z" fill="#FFC700"/>
<path d="M116.499 232.856C114.554 232.856 112.635 232.403 110.895 231.532C109.155 230.661 107.642 229.397 106.475 227.839L75.7402 186.829C74.7528 185.512 74.0345 184.012 73.6261 182.417C73.2177 180.822 73.1273 179.162 73.3601 177.531C73.5929 175.901 74.1443 174.333 74.9828 172.916C75.8213 171.499 76.9305 170.261 78.247 169.273C79.5636 168.285 81.0617 167.566 82.6559 167.157C84.25 166.748 85.909 166.658 87.5381 166.891C89.1672 167.124 90.7345 167.676 92.1505 168.515C93.5665 169.354 94.8035 170.464 95.7908 171.781L115.899 198.609L167.543 121.088C169.387 118.323 172.254 116.404 175.512 115.753C178.77 115.102 182.153 115.772 184.917 117.616C187.681 119.46 189.601 122.328 190.253 125.588C190.906 128.848 190.238 132.233 188.397 135.001L126.927 227.272C125.815 228.94 124.32 230.318 122.566 231.289C120.812 232.26 118.852 232.796 116.848 232.852C116.732 232.854 116.616 232.856 116.499 232.856Z" fill="#FFC700"/>
<path d="M247.939 68.4859C248.252 66.3305 245.996 64.2177 242.9 63.7669C239.804 63.3161 237.04 64.6979 236.727 66.8534C236.413 69.0088 238.669 71.1216 241.765 71.5724C244.861 72.0232 247.625 70.6413 247.939 68.4859Z" fill="#E6E6E6"/>
<path d="M284.802 64.8864C285.115 62.731 282.859 60.6183 279.763 60.1675C276.667 59.7167 273.903 61.0985 273.59 63.2539C273.276 65.4093 275.532 67.5221 278.628 67.9729C281.725 68.4237 284.488 67.0418 284.802 64.8864Z" fill="#3F3D56"/>
<path d="M237.844 38.6208C238.158 36.4653 235.902 34.3526 232.805 33.9018C229.709 33.451 226.945 34.8328 226.632 36.9882C226.319 39.1437 228.574 41.2564 231.671 41.7072C234.767 42.1581 237.531 40.7762 237.844 38.6208Z" fill="#FF6584"/>
<path d="M221.826 26.3875C221.841 24.4087 220.738 22.7962 219.363 22.7857C217.987 22.7753 216.86 24.371 216.845 26.3498C216.83 28.3285 217.933 29.9411 219.309 29.9515C220.684 29.9619 221.811 28.3662 221.826 26.3875Z" fill="#E6E6E6"/>
<path d="M216.394 3.60181C216.409 1.62305 215.306 0.0105121 213.931 0.000103174C212.555 -0.0103058 211.428 1.58536 211.413 3.56411C211.398 5.54287 212.501 7.15541 213.877 7.16582C215.252 7.17623 216.379 5.58056 216.394 3.60181Z" fill="#3F3D56"/>
<path d="M258.636 43.703C258.651 41.7242 257.548 40.1117 256.172 40.1013C254.797 40.0909 253.669 41.6866 253.655 43.6653C253.64 45.6441 254.743 47.2566 256.118 47.267C257.494 47.2774 258.621 45.6818 258.636 43.703Z" fill="#E6E6E6"/>
<path d="M240.822 52.6037C240.837 50.6249 239.734 49.0124 238.358 49.002C236.983 48.9916 235.856 50.5872 235.841 52.566C235.826 54.5447 236.929 56.1572 238.304 56.1677C239.68 56.1781 240.807 54.5824 240.822 52.6037Z" fill="#FF6584"/>
<path d="M265.62 69.0545C265.635 67.0757 264.532 65.4632 263.156 65.4528C261.781 65.4424 260.653 67.038 260.638 69.0168C260.623 70.9956 261.726 72.608 263.102 72.6185C264.477 72.6289 265.605 71.0332 265.62 69.0545Z" fill="#3F3D56"/>
<path d="M36.5258 335.568C36.8392 333.412 34.5833 331.3 31.4871 330.849C28.3909 330.398 25.6269 331.78 25.3135 333.935C25.0001 336.091 27.256 338.203 30.3522 338.654C33.4484 339.105 36.2124 337.723 36.5258 335.568Z" fill="#E6E6E6"/>
<path d="M73.3893 331.968C73.7027 329.813 71.4468 327.7 68.3506 327.249C65.2544 326.798 62.4904 328.18 62.177 330.336C61.8637 332.491 64.1196 334.604 67.2157 335.055C70.3119 335.505 73.0759 334.123 73.3893 331.968Z" fill="#3F3D56"/>
<path d="M26.4315 305.702C26.7449 303.547 24.489 301.434 21.3928 300.984C18.2967 300.533 15.5327 301.915 15.2193 304.07C14.9059 306.225 17.1618 308.338 20.258 308.789C23.3542 309.24 26.1182 307.858 26.4315 305.702Z" fill="#FF6584"/>
<path d="M10.4134 293.469C10.4283 291.49 9.32536 289.878 7.94982 289.868C6.57429 289.857 5.44705 291.453 5.4321 293.432C5.41715 295.41 6.52014 297.023 7.89568 297.033C9.27121 297.044 10.3984 295.448 10.4134 293.469Z" fill="#E6E6E6"/>
<path d="M4.98147 270.683C4.99642 268.705 3.89345 267.092 2.51792 267.082C1.14238 267.071 0.01517 268.667 0.000217878 270.646C-0.0147343 272.625 1.08823 274.237 2.46377 274.247C3.83931 274.258 4.96652 272.662 4.98147 270.683Z" fill="#3F3D56"/>
<path d="M47.2229 310.785C47.2379 308.806 46.1349 307.194 44.7593 307.183C43.3838 307.173 42.2566 308.768 42.2417 310.747C42.2267 312.726 43.3297 314.338 44.7052 314.349C46.0807 314.359 47.208 312.764 47.2229 310.785Z" fill="#E6E6E6"/>
<path d="M29.409 319.685C29.424 317.707 28.321 316.094 26.9454 316.084C25.5699 316.073 24.4427 317.669 24.4277 319.648C24.4128 321.627 25.5157 323.239 26.8913 323.249C28.2668 323.26 29.3941 321.664 29.409 319.685Z" fill="#FF6584"/>
<path d="M54.2066 336.136C54.2215 334.158 53.1185 332.545 51.743 332.535C50.3675 332.524 49.2403 334.12 49.2253 336.099C49.2104 338.077 50.3133 339.69 51.6888 339.7C53.0644 339.711 54.1916 338.115 54.2066 336.136Z" fill="#3F3D56"/>
</g>
<defs>
<clipPath id="clip0_350_193">
<rect width="431" height="514" fill="white"/>
</clipPath>
</defs>
</svg>
