<svg width="90" height="80" viewBox="0 0 90 80" fill="none" xmlns="http://www.w3.org/2000/svg">
<path d="M40.1473 44.379L39.6033 44.7018L39.8297 45.2925L41.5828 49.8657L34.1985 52.4182L32.4305 47.8053L32.2181 47.2513L31.6301 47.3305C30.6175 47.4669 29.5835 47.5386 28.5324 47.5386C27.4815 47.5386 26.4477 47.4665 25.4347 47.3304L24.8469 47.2515L24.6346 47.8053L22.8663 52.4179L15.4816 49.8661L17.2347 45.2931L17.4611 44.7024L16.917 44.3796C15.1579 43.336 13.5659 42.0638 12.1876 40.6072L11.7899 40.1868L11.2824 40.465L6.76675 42.9403L2.86266 36.5196L7.30911 34.0822L7.86385 33.7781L7.65762 33.18C7.02867 31.3561 6.6586 29.4229 6.58925 27.418L6.56806 26.8055L5.96356 26.7043L0.876747 25.8525L2.22938 18.5671L7.34211 19.4233L7.92506 19.5209L8.15623 18.9769C8.93426 17.1461 9.97867 15.4419 11.2464 13.9093L11.6551 13.4151L11.2305 12.9346L7.93632 9.20685L13.938 4.42502L17.2798 8.20648L17.6644 8.64161L18.1819 8.37828C19.9846 7.46113 21.937 6.77526 23.9955 6.36362L24.5985 6.24305V5.62818V0.75H32.4664V5.62818V6.24304L33.0693 6.36362C35.1276 6.77526 37.08 7.46112 38.8825 8.37827L39.4 8.64162L39.7846 8.2065L43.1266 4.425L49.1283 9.20663L45.8337 12.9344L45.409 13.415L45.8178 13.9091C47.0858 15.4417 48.1301 17.1457 48.9081 18.9767L49.1393 19.5207L49.7223 19.4231L54.8351 18.5669L56.1884 25.8522L51.1009 26.7041L50.4963 26.8053L50.4752 27.4178C50.4058 29.4226 50.0359 31.3561 49.407 33.1793L49.2007 33.7774L49.7555 34.0815L54.2016 36.5192L50.2977 42.94L45.7824 40.4641L45.2748 40.1857L44.8769 40.6062C43.4983 42.0633 41.9063 43.3354 40.1473 44.379ZM15.8185 26.727C15.8185 33.4415 21.5582 38.837 28.532 38.837C35.506 38.837 41.2454 33.4415 41.2454 26.727C41.2454 20.013 35.5058 14.617 28.532 14.617C21.5582 14.617 15.8185 20.013 15.8185 26.727Z" fill="#019154" stroke="black" stroke-width="1.5"/>
<path d="M61.7257 80L62.6137 76.0595C63.3691 76.0615 64.1332 76.0128 64.9024 75.9112C65.672 75.8095 66.4215 75.6561 67.147 75.4592L69.1358 79.0196M61.7257 80L61.8748 79.2649L61.1554 79.119M61.7257 80L60.994 79.8351L61.1554 79.119M61.7257 80L55.9029 78.8189L46.5433 50.1133M61.1554 79.119L61.882 75.8946L62.0143 75.3079L62.6157 75.3095C63.3375 75.3114 64.068 75.2648 64.8042 75.1676L64.8042 75.1676C65.5394 75.0706 66.256 74.9239 66.9506 74.7354L67.5161 74.582L67.8018 75.0935L69.4402 78.0266M61.1554 79.119L56.0678 78.087L56.7885 74.888L56.926 74.2774L56.3499 74.0328C55.0113 73.4645 53.7656 72.7214 52.6512 71.8298L52.2005 71.4692L51.7365 71.8125L48.9561 73.87L45.7868 70.0088L48.5001 68.0005L49.0127 67.6211L48.7206 67.0542C48.0936 65.8371 47.6368 64.5214 47.3827 63.1274L47.2743 62.5332L46.6706 62.5124L43.181 62.3922L43.3664 57.528L46.8619 57.648L47.4605 57.6686L47.6129 57.0893C47.9684 55.7388 48.5224 54.4529 49.2502 53.2659L49.5844 52.7208L49.099 52.3045L46.5433 50.1133M69.4402 78.0266L68.7985 78.3498L69.1358 79.0196M69.4402 78.0266L69.7906 78.6539L69.1358 79.0196M69.4402 78.0266L74.0238 75.7185M69.1358 79.0196L74.3899 76.3739L74.0238 75.7185M74.0238 75.7185L74.6943 75.3808L73.0695 72.4717C74.2469 71.5361 75.2763 70.4482 76.1316 69.2457L80.0718 70.7628M74.0238 75.7185L72.4147 72.8375L72.1039 72.281L72.6029 71.8845C73.7253 70.9926 74.706 69.956 75.5205 68.811L75.8579 68.3366L76.4011 68.5458L79.6661 69.803M79.6661 69.803L79.382 70.4683L80.0718 70.7628M79.6661 69.803L80.3413 70.0629L80.0718 70.7628M79.6661 69.803L81.5964 65.2822M80.0718 70.7628L82.2967 65.5519L81.5964 65.2822M81.5964 65.2822L81.8911 64.592L78.6588 63.3474C78.924 61.9448 78.9874 60.4856 78.823 59.0032L82.1449 57.9823L81.9028 57.2721M81.5964 65.2822L78.3893 64.0473L77.8057 63.8226L77.9219 63.2081C78.1734 61.8776 78.2336 60.4932 78.0776 59.0858L78.0091 58.4686L78.6027 58.2862L81.9028 57.2721M81.9028 57.2721L82.6201 57.0517L80.7971 51.704M81.9028 57.2721L80.322 52.6346M80.322 52.6346L81.0174 52.421L80.7971 51.704M80.322 52.6346L76.979 53.6614L76.4203 53.8331L76.1174 53.3331C75.3853 52.125 74.4795 51.0295 73.4349 50.0748L72.9622 49.6427L73.3149 49.1081L75.1391 46.3437M80.322 52.6346L75.1391 46.3437M80.7971 51.704L76.7588 52.9445L80.7971 51.704ZM75.1391 46.3437L70.7471 43.7308L68.8857 46.5508L68.5636 47.0389L68.0117 46.8454C66.6561 46.3702 65.2195 46.071 63.7361 45.9739L63.1311 45.9343L63.0431 45.3343L62.5649 42.0755L57.4103 42.7578L57.8854 45.9957L57.9759 46.6125L57.3861 46.8142C55.9892 47.2921 54.6941 47.953 53.5285 48.7605L53.0527 49.0901L52.6133 48.7135L50.0017 46.475L46.5433 50.1133M75.1391 46.3437L46.5433 50.1133M63.9403 69.4221L63.9406 69.422C68.996 68.7523 72.601 64.2831 71.8844 59.3932L71.8844 59.3929C71.1669 54.5121 66.4288 51.1575 61.3795 51.8262C56.3234 52.4945 52.7172 56.9649 53.4356 61.8553C54.1513 66.736 58.8909 70.0896 63.9403 69.4221Z" fill="#019154" stroke="black" stroke-width="1.5"/>
<path d="M85.9145 24.6572L86.0269 25.2502L86.6302 25.2672L89.227 25.3405L89.1167 28.8661L86.5101 28.7925L85.9112 28.7756L85.7624 29.3559C85.4951 30.3988 85.0762 31.4054 84.5132 32.3426L84.1847 32.8895L84.6718 33.3015L86.5734 34.9099L84.0799 37.5682L82.1212 35.9122L81.6804 35.5395L81.2073 35.8702C80.755 36.1863 80.2743 36.4774 79.7656 36.737L79.765 36.7373C79.2557 36.9978 78.7354 37.2194 78.2082 37.4035L77.6197 37.609L77.7142 38.2252L78.0815 40.6221L74.3283 41.1426L73.9566 38.7205L73.8648 38.1226L73.2611 38.0856C72.1193 38.0157 70.9942 37.793 69.922 37.4278L69.3696 37.2396L69.0514 37.7288L67.6781 39.8404L64.4691 37.9586L65.801 35.9101L66.1497 35.3737L65.6749 34.9447C64.8669 34.2149 64.1559 33.3702 63.5716 32.4163L63.2659 31.9171L62.7074 32.0924L60.2194 32.8735L59.0514 29.5176L61.4955 28.75L62.0878 28.564L62.0156 27.9473C61.8897 26.8711 61.927 25.7931 62.119 24.7418L62.2313 24.1268L61.6465 23.9056L59.256 23.0014L60.6335 19.7148L63.071 20.6361L63.6172 20.8425L63.9513 20.3637C64.57 19.477 65.3254 18.6628 66.2068 17.9558L66.7048 17.5563L66.3899 17.0009L65.188 14.881L68.5128 13.1808L69.7465 15.3565L70.0358 15.8668L70.6008 15.7089C71.7128 15.398 72.8477 15.246 73.9754 15.2445L74.5784 15.2437L74.7071 14.6546L75.2314 12.2544L78.9428 12.9843L78.4259 15.3561L78.2924 15.9691L78.8721 16.2089C79.9109 16.6385 80.8882 17.2071 81.7705 17.9033L82.2235 18.2607L82.6851 17.9145L84.7441 16.3703L87.0647 19.1595L85.0658 20.6591L84.5561 21.0414L84.851 21.6062C85.3672 22.595 85.7182 23.6217 85.9145 24.6572ZM77.5698 32.9972L77.57 32.9971C81.2129 31.1338 82.6154 26.7703 80.6279 23.2635L80.6278 23.2632C78.6522 19.781 74.0979 18.5034 70.4754 20.3568C66.8313 22.219 65.4278 26.5846 67.4171 30.0912C69.3914 33.5736 73.9461 34.8497 77.5698 32.9972Z" fill="#019154" stroke="black" stroke-width="1.5"/>
</svg>
