<svg width="35" height="34" viewBox="0 0 35 34" fill="none" xmlns="http://www.w3.org/2000/svg">
<path d="M16.3723 8.31892V6.70357C16.1759 6.62994 15.9855 6.54136 15.8027 6.43862C15.0868 6.01353 14.5477 5.34509 14.2837 4.55531C14.0196 3.76553 14.0483 2.9071 14.3645 2.13673C14.5402 1.71662 14.7955 1.33448 15.1164 1.0114C15.4362 0.691379 15.8154 0.436867 16.2327 0.262134C16.6532 0.0871802 17.1044 -0.00193249 17.5598 3.17793e-05C18.244 -6.47016e-05 18.9128 0.202914 19.4816 0.583271C20.0504 0.963629 20.4936 1.50426 20.7551 2.13673C21.1043 2.9824 21.1043 3.93203 20.7551 4.77769C20.5811 5.19787 20.3255 5.57939 20.0033 5.90017L19.9862 5.91727C19.7833 6.11681 19.5578 6.29179 19.3141 6.43862C19.1333 6.54537 18.9426 6.63411 18.7445 6.70357V8.31892H26.8552C28.0192 8.32268 29.1344 8.78711 29.9572 9.61077C30.78 10.4344 31.2435 11.5504 31.2465 12.7148V13.3672H32.7502C33.3467 13.3695 33.9181 13.6077 34.3396 14.0299C34.7611 14.4521 34.9985 15.024 35 15.6207V20.8542C34.9985 21.4509 34.7611 22.0228 34.3396 22.445C33.9181 22.8672 33.3467 23.1055 32.7502 23.1077H31.2551V23.6975C31.2513 24.8632 30.7864 25.9799 29.9619 26.8037C29.1374 27.6274 28.0204 28.0911 26.8552 28.0934H15.7286L9.05899 33.8226C8.98546 33.8857 8.90017 33.9337 8.80802 33.9638C8.71587 33.9939 8.61869 34.0054 8.52207 33.9977C8.42545 33.99 8.33131 33.9633 8.24506 33.9191C8.15881 33.8748 8.08216 33.8139 8.01953 33.7399C7.89427 33.5938 7.83003 33.4051 7.84011 33.2129L8.19609 28.0848H8.13629C6.9738 28.0818 5.85973 27.6187 5.03746 26.7966C4.21518 25.9746 3.75152 24.8604 3.74776 23.6975V23.1077H2.25264C1.65567 23.1062 1.08357 22.8683 0.661445 22.446C0.239318 22.0237 0.00150373 21.4514 0 20.8542L0 15.6207C0.00150012 15.024 0.238923 14.4521 0.660436 14.0299C1.08195 13.6077 1.65331 13.3695 2.2498 13.3672H3.74776V12.712C3.75002 11.548 4.21301 10.4324 5.03545 9.60911C5.85789 8.78582 6.97281 8.32193 8.13629 8.31892H16.3723ZM23.5631 13.4812C24.0903 13.4812 24.6056 13.6376 25.044 13.9306C25.4823 14.2236 25.824 14.6401 26.0257 15.1273C26.2275 15.6146 26.2803 16.1507 26.1774 16.668C26.0746 17.1853 25.8207 17.6604 25.4479 18.0334C25.0751 18.4063 24.6002 18.6603 24.0831 18.7631C23.566 18.866 23.0301 18.8132 22.543 18.6114C22.0559 18.4096 21.6396 18.0678 21.3467 17.6293C21.0538 17.1907 20.8975 16.6752 20.8975 16.1478C20.8975 15.4406 21.1783 14.7623 21.6782 14.2622C22.1781 13.7621 22.8561 13.4812 23.5631 13.4812V13.4812ZM11.4369 13.4812C11.9641 13.4812 12.4795 13.6376 12.9179 13.9306C13.3562 14.2236 13.6979 14.6401 13.8996 15.1273C14.1014 15.6146 14.1542 16.1507 14.0513 16.668C13.9485 17.1853 13.6946 17.6604 13.3218 18.0334C12.949 18.4063 12.474 18.6603 11.957 18.7631C11.4399 18.866 10.9039 18.8132 10.4169 18.6114C9.9298 18.4096 9.51349 18.0678 9.22059 17.6293C8.92769 17.1907 8.77136 16.6752 8.77136 16.1478C8.77136 15.4406 9.0522 14.7623 9.55209 14.2622C10.052 13.7621 10.73 13.4812 11.4369 13.4812V13.4812ZM13.2539 22.4154C13.2137 22.3837 13.1773 22.3474 13.1456 22.3072C13.0534 22.1988 13.0011 22.062 12.9976 21.9197C12.995 21.7767 13.0412 21.637 13.1286 21.5237C13.1612 21.4825 13.1985 21.4453 13.2396 21.4126C13.3963 21.2891 13.5889 21.2201 13.7883 21.216C13.9877 21.2119 14.183 21.2729 14.3446 21.3898C14.8313 21.7739 15.3714 22.0849 15.9479 22.3129C16.4446 22.5051 16.9731 22.6017 17.5057 22.5978C18.0449 22.5863 18.578 22.4802 19.0806 22.2844C19.6639 22.0511 20.2144 21.7427 20.7181 21.367C20.8833 21.2543 21.0807 21.1984 21.2805 21.2076C21.4803 21.2168 21.6717 21.2908 21.8259 21.4183C21.8645 21.4539 21.8998 21.493 21.9312 21.5351C22.015 21.6507 22.0571 21.7913 22.0509 21.934C22.0387 22.0766 21.9808 22.2115 21.8857 22.3186C21.8496 22.3597 21.8084 22.396 21.7632 22.4268C21.1227 22.9004 20.4204 23.2838 19.6758 23.5664C18.9898 23.8251 18.2643 23.9629 17.5313 23.9738C16.7975 23.984 16.0679 23.8605 15.3784 23.6091C14.6183 23.3247 13.9066 22.925 13.2681 22.424V22.424L13.2539 22.4154ZM26.8523 9.80036H8.13629C7.36481 9.80337 6.62583 10.1115 6.08057 10.6575C5.53532 11.2035 5.22804 11.943 5.22579 12.7148V23.6975C5.22804 24.4692 5.53532 25.2088 6.08057 25.7548C6.62583 26.3008 7.36481 26.6089 8.13629 26.6119H9.03906C9.23429 26.6265 9.41588 26.7176 9.54439 26.8654C9.67289 27.0131 9.73793 27.2056 9.72539 27.4011L9.4406 31.5548L14.9369 26.8227C15.0053 26.7543 15.0866 26.7002 15.1761 26.6635C15.2655 26.6268 15.3614 26.6083 15.4581 26.6091H26.8495C27.621 26.6061 28.3599 26.2979 28.9052 25.7519C29.4504 25.206 29.7577 24.4664 29.76 23.6946V12.712C29.7585 11.9407 29.4517 11.2014 28.9068 10.6558C28.362 10.1102 27.6233 9.80262 26.8523 9.80036V9.80036Z" fill="white"/>
</svg>
