<svg width="16" height="22" viewBox="0 0 16 22" fill="none" xmlns="http://www.w3.org/2000/svg">
<g clip-path="url(#clip0_17_269)">
<path d="M12.45 0.440186H3.28157C2.40412 0.440186 1.6958 1.14476 1.6958 2.0121V20.4489C1.6958 21.3155 2.40412 22.0193 3.28157 22.0193H12.45C13.3259 22.0193 14.0358 21.3155 14.0358 20.4489V2.0121C14.0358 1.14476 13.3259 0.440186 12.45 0.440186ZM5.60346 1.39482H10.1297C10.244 1.39482 10.337 1.56388 10.337 1.77305C10.337 1.98222 10.244 2.15208 10.1297 2.15208H5.60346C5.48831 2.15208 5.397 1.98222 5.397 1.77305C5.397 1.56388 5.48831 1.39482 5.60346 1.39482ZM7.86658 20.4678C7.30834 20.4678 6.85413 20.018 6.85413 19.4644C6.85413 18.9108 7.30834 18.4626 7.86658 18.4626C8.42322 18.4626 8.87744 18.9108 8.87744 19.4644C8.87744 20.018 8.42322 20.4678 7.86658 20.4678ZM12.8478 17.0322H2.88453V3.09255H12.8478V17.0322Z" fill="black" fill-opacity="0.4"/>
</g>
<defs>
<clipPath id="clip0_17_269">
<rect width="14.2934" height="21.2315" fill="white" transform="translate(0.94043 0.47937)"/>
</clipPath>
</defs>
</svg>
