<svg width="21" height="20" viewBox="0 0 21 20" fill="none" xmlns="http://www.w3.org/2000/svg">
<g clip-path="url(#clip0_17_281)">
<path d="M18.7076 8.05462L17.3196 3.58754C17.0031 2.56879 16.0506 1.88477 14.9496 1.88477H5.65814C4.55711 1.88477 3.60464 2.56879 3.28816 3.58754L1.90017 8.05462C1.02374 8.42237 0.408447 9.26449 0.408447 10.2447V15.0218C0.408447 15.6813 0.962287 16.216 1.64538 16.216H1.64545L1.64538 17.4102C1.64538 18.0699 2.19914 18.6046 2.8823 18.6046H4.11931C4.80239 18.6046 5.35623 18.0699 5.35623 17.4103L5.35571 16.216H15.2516L15.2515 17.4102C15.2515 18.0699 15.8053 18.6046 16.4884 18.6046H17.7254C18.4086 18.6046 18.9624 18.0699 18.9624 17.4103V16.2161L18.9619 16.216H18.9624C19.6455 16.216 20.1993 15.6813 20.1993 15.0218V10.2447C20.1993 9.26449 19.584 8.42236 18.7076 8.05462L18.7076 8.05462ZM5.65811 4.27331H14.9496L16.0628 7.85613H4.54484L5.6581 4.27331H5.65811ZM5.35612 13.2304C4.67296 13.2304 4.11919 12.6956 4.11919 12.0361C4.11919 11.3765 4.67296 10.8418 5.35612 10.8418C6.03928 10.8418 6.59305 11.3765 6.59305 12.0361C6.59305 12.6956 6.03928 13.2304 5.35612 13.2304ZM15.2515 13.2304C14.5684 13.2304 14.0146 12.6956 14.0146 12.0361C14.0146 11.3765 14.5684 10.8418 15.2515 10.8418C15.9347 10.8418 16.4885 11.3765 16.4885 12.0361C16.4885 12.6956 15.9347 13.2304 15.2515 13.2304Z" fill="black" fill-opacity="0.4"/>
</g>
<defs>
<clipPath id="clip0_17_281">
<rect width="19.7909" height="19.1084" fill="white" transform="translate(0.408447 0.69043)"/>
</clipPath>
</defs>
</svg>
