<svg width="17" height="23" viewBox="0 0 17 23" fill="none" xmlns="http://www.w3.org/2000/svg">
<path d="M8.30361 0.319824C3.87048 0.319824 0.277832 3.78955 0.277832 8.0698C0.277832 11.3326 4.94286 18.8509 7.15947 22.2393C7.40787 22.6182 7.84042 22.8475 8.30441 22.8475C8.76859 22.8466 9.20025 22.6174 9.44789 22.2386C11.6652 18.8494 16.3295 11.3325 16.3295 8.06975C16.3295 3.78955 12.7368 0.319824 8.30361 0.319824ZM8.30361 12.8011C5.79652 12.8011 3.76406 10.839 3.76406 8.4181C3.76406 5.99742 5.79647 4.03509 8.30361 4.03509C10.8107 4.03509 12.8432 5.99737 12.8432 8.4181C12.8432 10.839 10.8108 12.8011 8.30361 12.8011Z" fill="black" fill-opacity="0.4"/>
</svg>
