<svg width="60" height="60" viewBox="0 0 60 60" fill="none" xmlns="http://www.w3.org/2000/svg">
<rect x="0.5" y="0.5" width="59" height="59" rx="19.5" fill="#FFC700" stroke="black"/>
<path d="M20.6094 26.0908L34.5588 16.5909C35.8428 15.7165 37.5926 16.0485 38.467 17.3325V17.3325L22.1927 28.4157L20.6094 26.0908Z" fill="black"/>
<ellipse cx="43.0493" cy="23.0602" rx="6.18825" ry="6.18824" transform="rotate(-34.2557 43.0493 23.0602)" fill="black"/>
<path d="M17.71 32.8281L39.5641 17.945L44.314 24.9197L17.71 32.8281Z" fill="black"/>
<path d="M10.7285 52.5582L41.7821 21.2005L46.532 28.1752L10.7285 52.5582Z" fill="black"/>
<path d="M46.9625 19.3854C43.9721 18.5423 42.2313 15.4347 43.0743 12.4443V12.4443C43.9174 9.45386 47.025 7.71309 50.0155 8.55615L51.0984 8.86145L48.0454 19.6907L46.9625 19.3854Z" fill="black"/>
<rect x="45.2939" y="13.3638" width="6.75081" height="6.75081" transform="rotate(-34.2557 45.2939 13.3638)" fill="black"/>
<path d="M15.8863 30.8182C16.5992 30.9215 17.5814 29.5974 18.3044 29.7194C17.7397 29.9423 16.8609 30.4747 16.5282 31.2214C17.3721 30.2238 17.8052 30.6433 19.1457 29.3602C19.1664 29.3396 19.1874 29.3191 19.2093 29.2987C19.1879 29.3196 19.1667 29.3401 19.1457 29.3602C18.7477 29.7568 18.5616 30.1878 17.6548 30.7281C19.5426 30.1231 19.4672 29.0392 20.8629 28.249C20.3413 28.7531 20.7621 29.0252 20.0206 29.3079C21.0285 29.2227 20.9142 28.1984 22.0065 28.1417L20.8104 26.3854C20.5609 26.8861 19.7181 27.4146 19.7954 27.1451C19.3628 27.5475 19.865 27.4993 20.2442 27.2555C19.1472 28.1171 18.7203 27.6581 17.435 28.6207C18.267 28.1969 18.4263 28.486 18.3774 28.6618C17.773 28.5654 16.6508 29.1613 16.4978 29.8155C16.7423 29.4794 17.8413 28.7843 17.5716 29.3291C17.4715 29.5313 17.1319 30.1455 15.8863 30.8182ZM16.5079 31.615C16.5315 31.6458 16.5776 31.6631 16.6494 31.6632C16.6021 31.4155 17.1482 30.8985 17.8467 30.4582C17.0601 30.7407 16.3639 31.4273 16.5079 31.615ZM16.2639 30.1734C16.7704 29.7657 17.1697 29.6825 16.7415 30.134C17.6024 29.3834 17.4663 28.935 16.2639 30.1734ZM16.9681 28.9289C17.2577 28.4693 18.0641 27.9961 18.8239 27.7691C18.1335 27.6417 16.8086 28.543 16.9681 28.9289ZM19.1588 30.2303C19.7085 29.7119 20.1006 30.2521 20.9211 28.9887C20.28 29.7123 19.9061 29.1834 19.1588 30.2303Z" fill="white"/>
<path d="M45.3984 20.62L43.8002 21.8919L42.5331 20.2996C42.4968 20.254 42.4299 20.2469 42.3837 20.2836L40.6871 21.6338C40.6409 21.6705 40.6329 21.7374 40.6692 21.7829L41.9363 23.3752L40.4364 24.5688L39.1693 22.9765C39.133 22.9309 39.0661 22.9238 39.0199 22.9605L37.3233 24.3107C37.2772 24.3474 37.2691 24.4142 37.3054 24.4598L38.5725 26.0521L36.9741 27.3241C36.9279 27.3608 36.9199 27.4277 36.9562 27.4732L38.2889 29.1479C38.3252 29.1935 38.3921 29.2007 38.4383 29.1639L40.1349 27.8138C40.1811 27.777 40.1891 27.7102 40.1528 27.6646L38.8858 26.0725L40.3857 24.8789L41.6527 26.4711C41.6889 26.5166 41.7559 26.5238 41.802 26.4871L43.4986 25.1369C43.5448 25.1001 43.5529 25.0333 43.5166 24.9877L42.2496 23.3956L43.7494 22.2021L45.0164 23.7942C45.0527 23.8398 45.1196 23.8469 45.1658 23.8102L46.8624 22.46C46.9086 22.4233 46.9166 22.3564 46.8804 22.3109L45.5476 20.6362C45.5114 20.5903 45.4446 20.5833 45.3984 20.62Z" fill="white"/>
</svg>
