<?xml version="1.0" standalone="no"?>
<!DOCTYPE svg PUBLIC "-//W3C//DTD SVG 20010904//EN"
 "http://www.w3.org/TR/2001/REC-SVG-20010904/DTD/svg10.dtd">
<svg version="1.0" xmlns="http://www.w3.org/2000/svg"
 width="268.000000pt" height="268.000000pt" viewBox="0 0 268.000000 268.000000"
 preserveAspectRatio="xMidYMid meet">
<metadata>
Created by potrace 1.14, written by Peter Selinger 2001-2017
</metadata>
<g transform="translate(0.000000,268.000000) scale(0.100000,-0.100000)"
fill="#000000" stroke="none">
<path d="M175 2668 c-49 -17 -92 -55 -114 -101 -21 -43 -21 -45 -21 -1185 0
-1009 2 -1147 15 -1180 21 -49 52 -81 100 -103 38 -18 93 -19 1185 -19 1090 0
1147 1 1185 19 49 22 91 69 105 119 8 26 10 387 8 1184 l-3 1146 -30 43 c-16
23 -50 53 -74 66 l-44 23 -1141 -1 c-768 0 -1151 -4 -1171 -11z m1997 -360
c58 -19 68 -25 68 -45 0 -13 34 -80 75 -150 51 -84 72 -130 66 -136 -6 -6 -66
-43 -133 -83 -121 -71 -123 -72 -135 -51 -11 22 -11 22 -24 -5 -10 -23 -9 -38
10 -93 25 -79 26 -116 4 -185 -35 -108 -31 -105 -970 -659 -475 -280 -863
-508 -863 -506 0 1 268 240 595 530 327 291 594 530 592 532 -2 1 -181 -37
-398 -87 -216 -50 -397 -89 -400 -88 -9 4 973 584 1049 620 35 18 74 28 101
28 33 0 42 3 38 14 -20 52 -17 86 14 181 36 110 71 158 134 186 53 24 94 24
177 -3z m-571 -337 c16 -16 29 -33 29 -38 0 -14 -779 -468 -798 -465 -11 1
-25 -4 -32 -13 -17 -20 -31 -19 -23 3 4 9 -14 -2 -40 -25 -46 -43 -71 -57 -47
-27 12 13 10 14 -13 3 -15 -7 -27 -16 -27 -21 0 -5 -4 -7 -9 -3 -5 3 -13 -4
-16 -16 -4 -11 -9 -18 -12 -15 -3 3 2 17 11 31 17 26 17 26 -6 15 -19 -9 -18
-7 5 10 15 12 27 27 27 33 0 7 -4 6 -10 -3 -5 -8 -12 -11 -16 -7 -12 12 17 37
45 38 23 0 24 1 6 8 -11 5 -24 6 -29 3 -5 -3 -6 0 -2 6 4 6 14 8 23 5 12 -5
14 -3 8 7 -6 10 -4 12 9 7 21 -8 68 2 61 13 -2 4 7 12 21 19 14 6 24 17 21 24
-2 7 134 94 357 225 396 233 404 236 457 183z m-826 -551 c-3 -5 -14 -10 -23
-10 -15 0 -15 2 -2 10 20 13 33 13 25 0z"/>
</g>
</svg>
