<svg width="70" height="70" viewBox="0 0 70 70" fill="none" xmlns="http://www.w3.org/2000/svg">
<path d="M14.6001 36.64C11.9267 36.64 9.75586 38.7821 9.75586 41.42C9.75586 44.0579 11.9267 46.2 14.6001 46.2C17.2734 46.2 19.4443 44.0579 19.4443 41.42C19.4443 38.7821 17.2734 36.64 14.6001 36.64ZM14.6001 44.5256C12.8558 44.5256 11.4433 43.1318 11.4433 41.4107C11.4433 39.6895 12.8558 38.2957 14.6001 38.2957C16.3443 38.2957 17.7569 39.6895 17.7569 41.4107C17.7569 43.1318 16.3443 44.5256 14.6001 44.5256Z" fill="black"/>
<path d="M47.9594 42.6829C47.694 42.6829 47.5138 42.6922 47.457 42.6922L32.2229 42.7764C30.7629 42.7858 25.1793 42.8045 20.8944 42.8138C20.7522 43.4312 20.5247 44.0111 20.2119 44.5443C20.2782 44.5443 20.3541 44.5443 20.4204 44.5443C24.7622 44.535 30.7156 44.5163 32.2323 44.5069L47.4665 44.4227C47.4854 44.4227 47.9025 44.4134 48.5851 44.404C48.3007 43.8709 48.0827 43.2909 47.9594 42.6829Z" fill="black"/>
<path d="M67.8956 39.7644C67.8956 39.6521 67.8956 39.5586 67.8956 39.5024C67.905 38.9318 67.8292 38.1461 67.7628 37.6503C67.6681 36.9955 67.5163 36.294 66.8433 35.6111C66.4072 35.1714 65.8574 34.8721 65.3834 34.6102C65.3076 34.5728 65.2412 34.5354 65.1654 34.4886C62.8618 33.1977 59.9324 32.4026 56.2069 32.0752L55.4391 32.0097C54.0739 31.8882 52.6615 31.7572 51.2584 31.6917C50.4621 31.6543 49.9312 31.5795 49.4193 31.3175C49.1444 31.1772 48.879 31.0369 48.6041 30.8873C48.2343 30.6908 47.8741 30.5037 47.5044 30.3073C44.8311 28.9415 41.9207 27.5665 38.7639 26.7246C35.3133 25.7985 31.9005 25.8266 28.7248 25.9857C25.7007 26.1353 22.1836 26.3692 18.733 27.1643C17.3773 27.4729 15.5951 27.9032 13.8414 28.4271C12.9977 28.6796 12.1729 28.9883 11.3671 29.2783C10.6467 29.5402 9.89776 29.8209 9.16784 30.0453C8.04921 30.3915 7.55625 30.4663 5.82144 30.7095C5.10097 30.8124 3.88754 31.2614 3.78327 33.1603L3.77378 33.2819C3.69794 34.6196 3.68848 34.7973 3.60316 35.9384L3.59368 36.0788C3.57471 36.3781 3.55576 36.6681 3.46096 36.8646C3.41357 36.9675 3.35666 37.061 3.29979 37.1826C3.23343 37.2949 3.16707 37.4258 3.09123 37.5661C2.74048 38.3051 2.78787 39.1095 2.82579 39.755L2.83529 39.9795C2.9206 41.8503 3.74536 42.9354 5.49914 43.4967C6.03001 43.665 7.2908 43.8428 8.75072 44.0017C8.49475 43.4405 8.32412 42.8325 8.2388 42.2058C7.2055 42.0842 6.38075 41.9626 6.03948 41.8503C4.99669 41.5136 4.63646 41.0458 4.58906 39.9046C4.58906 39.8298 4.57956 39.7457 4.57956 39.6708C4.55113 39.1657 4.5227 38.6512 4.68386 38.3051C4.72178 38.2115 4.77866 38.1274 4.83555 38.0338C4.91138 37.9028 4.9967 37.7438 5.07254 37.5661C5.2811 37.0984 5.30952 36.6307 5.33795 36.2192L5.34745 36.0882C5.44224 34.9189 5.45173 34.7131 5.51809 33.3848L5.52756 33.2632C5.56547 32.5055 5.80248 32.4775 6.05844 32.44C7.86909 32.1874 8.44736 32.1032 9.68925 31.7197C10.4666 31.4766 11.2344 31.196 11.9833 30.9246C12.7607 30.6346 13.557 30.3447 14.3533 30.1015C16.0597 29.587 17.804 29.1754 19.1311 28.8667C22.4397 28.0997 25.8619 27.8752 28.8101 27.7255C29.7581 27.6787 30.7156 27.6414 31.7014 27.6414C33.8629 27.6414 36.0906 27.8097 38.3089 28.4084C41.3046 29.2129 44.1106 30.5411 46.6986 31.8601C47.0588 32.0472 47.4191 32.2342 47.7699 32.4213C48.0447 32.571 48.3196 32.7113 48.5945 32.861C49.4762 33.3193 50.3483 33.3941 51.1636 33.4316C52.5287 33.497 53.9222 33.6187 55.2684 33.7496L56.0363 33.8151C59.5059 34.1238 62.1982 34.844 64.2837 36.0134C64.3596 36.0507 64.4355 36.0975 64.5112 36.1349C64.9094 36.3501 65.317 36.5746 65.573 36.8365C65.8479 37.1171 65.9332 37.3603 66.0091 37.9122C66.0754 38.3519 66.1323 39.0254 66.1228 39.4743C66.1228 39.5492 66.1228 39.6521 66.1228 39.783C66.1228 40.2508 66.1323 41.1207 66.0186 41.6632C65.9901 41.7942 65.9333 41.8503 65.8859 41.8784C65.4687 42.0561 63.4874 42.3273 62.3972 42.421C62.2929 42.4302 61.6009 42.4396 60.5676 42.4583C60.4634 43.0757 60.2738 43.6557 60.0083 44.1982C61.4398 44.1702 62.4257 44.1515 62.53 44.1421C62.6722 44.1327 66.0849 43.8615 66.8717 43.3095C67.4406 42.9167 67.6586 42.3929 67.7344 42.0187C67.9145 41.2891 67.905 40.335 67.8956 39.7644Z" fill="black"/>
<path d="M54.2255 36.64C51.5522 36.64 49.3813 38.7821 49.3813 41.42C49.3813 44.0579 51.5522 46.2 54.2255 46.2C56.8988 46.2 59.0697 44.0579 59.0697 41.42C59.0697 38.7821 56.9084 36.64 54.2255 36.64ZM54.2255 44.5256C52.4812 44.5256 51.0687 43.1318 51.0687 41.4107C51.0687 39.6895 52.4812 38.2957 54.2255 38.2957C55.9698 38.2957 57.3823 39.6895 57.3823 41.4107C57.3823 43.1318 55.9698 44.5256 54.2255 44.5256Z" fill="black"/>
<path d="M28.2512 28.9323C26.7818 29.0258 25.3219 29.1848 23.8715 29.4187C23.0278 29.5496 20.9044 29.9424 19.435 30.2886C18.9894 30.3915 18.1646 30.6253 18.0225 31.0837C17.776 31.8975 19.3591 32.1313 19.8615 32.1968C22.6581 32.571 25.4546 32.8329 28.3555 33.0294C28.4124 33.0294 28.5261 33.0294 28.6304 32.9358C28.7346 32.8423 28.7726 32.73 28.7726 32.6365C28.7346 31.7572 28.6493 29.5028 28.6493 29.3251C28.6493 29.2222 28.602 29.11 28.5071 29.0352C28.4124 28.9603 28.3175 28.9323 28.2512 28.9323Z" fill="black"/>
<path d="M43.9118 32.599C42.5846 31.5981 41.4945 30.906 39.8639 30.2698C37.8921 29.5028 35.7971 29.1006 33.6925 28.9509C32.9721 28.9041 32.299 28.8761 31.569 28.8667C31.4932 28.8667 31.3605 28.8948 31.2656 28.9977C31.1993 29.0725 31.1424 29.1848 31.1614 29.297C31.2752 30.2979 31.5501 32.8048 31.5595 32.8983C31.569 32.9639 31.607 33.0761 31.7017 33.151C31.7966 33.2351 31.8913 33.2539 31.9482 33.2539C35.5126 33.4409 39.0391 33.5438 42.5088 33.6561C42.9069 33.6654 43.1534 33.6935 43.5516 33.6935C44.1298 33.6747 44.4332 32.9919 43.9118 32.599Z" fill="black"/>
</svg>
