<svg width="63" height="70" viewBox="0 0 63 70" fill="none" xmlns="http://www.w3.org/2000/svg">
<path d="M49.3474 25.6266C49.1505 25.1519 48.7233 24.8452 48.2591 24.8452H47.3176C46.8534 24.8452 46.4263 25.1521 46.2294 25.6266C46.0325 26.1014 46.0974 26.6682 46.3945 27.0708L46.8651 27.7086C47.0941 28.019 47.4306 28.197 47.7884 28.197C48.1462 28.197 48.4827 28.019 48.7116 27.7086L49.1823 27.0708C49.4795 26.6682 49.5443 26.1014 49.3474 25.6266Z" fill="black"/>
<path d="M44.5707 20.8701C44.2963 20.8701 44.0272 20.9961 43.833 21.2153C43.639 21.4356 43.5273 21.7384 43.5273 22.0483C43.5273 22.3594 43.639 22.6621 43.833 22.8813C44.0272 23.1016 44.2963 23.2278 44.5707 23.2278C44.8451 23.2278 45.1143 23.1017 45.3084 22.8813C45.5025 22.6633 45.6141 22.3594 45.6141 22.0483C45.6141 21.7384 45.5025 21.4344 45.3084 21.2153C45.1143 20.9961 44.8451 20.8701 44.5707 20.8701Z" fill="black"/>
<path d="M51.0048 23.2265C51.2793 23.2265 51.5485 23.1016 51.7425 22.8813C51.9366 22.6621 52.0483 22.3594 52.0483 22.0483C52.0483 21.7384 51.9366 21.4344 51.7425 21.2153C51.5485 20.9961 51.2793 20.8701 51.0048 20.8701C50.7294 20.8701 50.4612 20.9961 50.2661 21.2153C50.072 21.4344 49.9614 21.7384 49.9614 22.0483C49.9614 22.3594 50.072 22.6621 50.2661 22.8813C50.4601 23.1016 50.7294 23.2265 51.0048 23.2265Z" fill="black"/>
<path d="M50.9086 33.097C54.7861 32.0869 57.6867 28.1593 57.6867 23.4785C57.6867 21.4092 57.106 19.3858 56.0416 17.7143C56.1623 17.128 56.2444 16.5296 56.2864 15.9281C56.3544 14.9517 56.3173 13.9708 56.1761 13.0123C56.0789 12.3532 55.7253 11.7906 55.2057 11.4688C54.6861 11.147 54.0757 11.1124 53.5312 11.3741C52.348 11.9427 51.2818 12.7356 50.3548 13.7359C49.8862 13.6492 49.4135 13.6055 48.943 13.6055H46.6329C46.1659 13.6055 45.6965 13.6486 45.2314 13.7341C44.3047 12.7347 43.2391 11.9423 42.0565 11.3741C41.5119 11.1124 40.9016 11.147 40.382 11.469C39.8625 11.7908 39.5088 12.3534 39.4117 13.0124C39.2705 13.9708 39.2333 14.9517 39.3013 15.9283C39.3431 16.5246 39.4241 17.1183 39.5432 17.7C39.1449 18.3232 38.8142 18.9955 38.5557 19.7011H23.8104C21.6905 19.7011 19.6476 20.2086 17.7387 21.2092C17.216 21.4833 16.989 22.1838 17.2317 22.774C17.4084 23.2035 17.7852 23.4564 18.1788 23.4564C18.3259 23.4564 18.4753 23.421 18.6175 23.3466C20.2491 22.4912 21.9964 22.0575 23.8106 22.0575H37.9824C37.9217 22.5264 37.8894 23.0011 37.8894 23.4787C37.8894 28.9227 41.8117 33.3518 46.633 33.3518H48.6999C47.9251 36.3777 46.1241 38.9406 43.6731 40.4877L43.1196 39.1527C42.8751 38.5633 42.254 38.3093 41.7322 38.5853C41.2103 38.8612 40.9853 39.5626 41.2296 40.152L44.0469 46.9464C44.0977 47.0688 44.1667 47.1803 44.251 47.2763L45.4663 48.6604C45.7485 48.9818 45.6596 49.3402 45.6083 49.4793C45.5569 49.6185 45.3942 49.9422 44.9934 49.9422H42.0265C42.0265 49.9422 30.7378 33.433 30.711 33.4018C29.1771 31.2299 26.8161 29.834 24.1704 29.834C23.5941 29.834 23.127 30.3615 23.127 31.0123C23.127 31.663 23.5941 32.1905 24.1704 32.1905C27.6321 32.1905 30.4483 35.3706 30.4483 39.2794C30.4483 41.5207 29.4926 43.6548 27.8916 44.988C27.5288 45.2901 27.3789 45.8209 27.5197 46.3043C27.6606 46.7877 28.0602 47.1145 28.5108 47.1145H30.1685C31.7617 47.1145 33.113 48.3065 33.5595 49.9422H23.8104C17.0021 49.9419 11.4633 43.6874 11.4633 35.9996C11.4633 33.9634 11.8428 32.0015 12.5915 30.1682C12.8328 29.5773 12.6042 28.8774 12.0809 28.605C11.5577 28.3325 10.9377 28.5905 10.6964 29.1814C9.8205 31.3264 9.37641 33.6203 9.37641 35.9996C9.37641 37.4964 9.55696 38.9463 9.89311 40.3241C6.57318 41.642 4.26367 45.2315 4.26367 49.2946C4.26367 54.536 8.04002 58.8003 12.6819 58.8003H40.6442C41.2205 58.8003 41.6876 58.2728 41.6876 57.6221C41.6876 55.5565 40.9604 53.6801 39.7814 52.2983H44.9932C46.1253 52.2983 47.0989 51.5654 47.5344 50.3856C47.9698 49.2055 47.7451 47.9088 46.948 47.001L45.8599 45.762L44.5597 42.6263C47.8029 40.6355 50.1176 37.1669 50.9086 33.097ZM39.9761 23.4784C39.9761 21.7427 40.5126 20.0494 41.4868 18.7105C41.7043 18.4116 41.778 18.0111 41.684 17.6391C41.5284 17.023 41.4268 16.385 41.3819 15.743C41.3329 15.0392 41.3516 14.3333 41.4375 13.6406C42.4516 14.162 43.3547 14.8938 44.1242 15.8183C44.3788 16.1241 44.7583 16.254 45.1206 16.1591C45.6197 16.0282 46.1286 15.9617 46.6329 15.9617H48.943C49.4503 15.9617 49.962 16.0289 50.4639 16.1612C50.8267 16.2571 51.2068 16.1272 51.4618 15.8207C52.2318 14.895 53.1355 14.1626 54.1505 13.6407C54.2364 14.3334 54.2551 15.0394 54.2061 15.743C54.1651 16.3305 54.0766 16.914 53.9428 17.4807C53.7843 17.8799 53.8323 18.3578 54.0889 18.7105C55.0633 20.0494 55.5998 21.7427 55.5998 23.4787C55.5998 27.6235 52.6136 30.9954 48.943 30.9954H46.6329C42.9622 30.9953 39.9761 27.6232 39.9761 23.4784ZM30.941 44.8174C31.8585 43.3836 32.4127 41.672 32.516 39.8858L39.3902 49.942H35.706C35.262 47.2755 33.34 45.1904 30.941 44.8174ZM12.6819 56.4437C9.19066 56.4437 6.35051 53.2367 6.35051 49.2946C6.35051 46.2345 8.09124 43.5317 10.5925 42.5438C12.8292 48.2817 17.9119 52.2983 23.8106 52.2983H34.8861C37.1273 52.2983 39.0083 54.0733 39.4843 56.4439H12.6819V56.4437Z" fill="black"/>
<path d="M14.3319 26.4976C14.6073 26.4976 14.8755 26.3715 15.0707 26.1524C15.2648 25.9332 15.3753 25.6292 15.3753 25.3194C15.3753 25.0095 15.2648 24.7055 15.0707 24.4864C14.8755 24.2672 14.6073 24.1411 14.3319 24.1411C14.0575 24.1411 13.7894 24.2672 13.5942 24.4864C13.4001 24.7055 13.2896 25.0095 13.2896 25.3194C13.2896 25.6292 13.4001 25.9332 13.5942 26.1524C13.7894 26.3714 14.0575 26.4976 14.3319 26.4976Z" fill="black"/>
</svg>
