<svg width="70" height="70" viewBox="0 0 70 70" fill="none" xmlns="http://www.w3.org/2000/svg">
<path d="M57.4742 44.7614C59.8025 44.7614 61.6857 46.6481 61.6857 48.9808C61.6857 51.3133 59.8025 53.2 57.4742 53.2C55.1459 53.2 53.2627 51.3133 53.2627 48.9808C53.2627 46.6481 55.1459 44.7614 57.4742 44.7614ZM57.4742 51.7079C58.9893 51.7079 60.2219 50.4729 60.2219 48.955C60.2219 47.4371 58.9893 46.2022 57.4742 46.2022C55.9591 46.2022 54.7265 47.4371 54.7265 48.955C54.7265 50.4815 55.9591 51.7079 57.4742 51.7079Z" fill="black"/>
<path d="M31.5119 49.4782C34.2853 49.4782 34.7903 49.4782 34.8502 49.4782H48.1523C48.3235 49.4782 49.8729 49.4525 51.8931 49.4182C51.9358 49.9755 52.0642 50.5073 52.2525 50.996C50.0697 51.0303 48.3492 51.0561 48.1523 51.0561H34.8588C34.7989 51.0561 34.0884 51.0561 31.1353 51.0561C31.3321 50.5673 31.4605 50.0356 31.5119 49.4782Z" fill="black"/>
<path d="M25.9053 44.7614C28.2337 44.7614 30.1169 46.6481 30.1169 48.9808C30.1169 51.3133 28.2337 53.2 25.9053 53.2C23.577 53.2 21.6938 51.3133 21.6938 48.9808C21.6938 46.6481 23.5856 44.7614 25.9053 44.7614ZM25.9053 51.7079C27.4205 51.7079 28.6531 50.4729 28.6531 48.955C28.6531 47.4371 27.4205 46.2022 25.9053 46.2022C24.3902 46.2022 23.1576 47.4371 23.1576 48.955C23.1576 50.4815 24.3902 51.7079 25.9053 51.7079Z" fill="black"/>
<path d="M14.8628 44.7614C17.1911 44.7614 19.0743 46.6481 19.0743 48.9808C19.0743 51.3133 17.1911 53.2 14.8628 53.2C12.5345 53.2 10.6514 51.3133 10.6514 48.9808C10.6514 46.6481 12.5345 44.7614 14.8628 44.7614ZM14.8628 51.7079C16.378 51.7079 17.6106 50.4729 17.6106 48.955C17.6106 47.4371 16.378 46.2022 14.8628 46.2022C13.3478 46.2022 12.1151 47.4371 12.1151 48.955C12.1151 50.4815 13.3478 51.7079 14.8628 51.7079Z" fill="black"/>
<path d="M52.4495 32.3437C52.6634 32.4723 52.8689 32.6352 53.0487 32.8497C53.7848 33.6987 55.3342 35.9198 55.5739 36.3228C56.0789 37.1461 55.6936 37.6264 55.0517 37.6693C54.2899 37.7207 53.451 37.7293 52.6806 37.7293C52.6378 37.7293 52.5522 37.7293 52.4409 37.7293V32.3437H52.4495Z" fill="black"/>
<path d="M44.8311 32.035C44.9252 31.9492 45.0451 31.9062 45.1564 31.9062C47.673 31.9062 50.2923 31.9149 50.6348 31.9149C50.8145 31.9149 50.9942 31.9235 51.174 31.9406V37.7293C49.7873 37.7293 47.6045 37.7293 45.1564 37.7379C45.0964 37.7379 44.9595 37.7207 44.8482 37.6264C44.7541 37.5492 44.6855 37.4206 44.6855 37.2576C44.6855 35.9284 44.6855 32.5838 44.6855 32.378C44.6855 32.2493 44.7369 32.1207 44.8311 32.035Z" fill="black"/>
<path d="M40.9961 30.2254C40.9961 29.1448 41.4412 28.5531 41.8092 28.2529C42.5112 27.6784 43.3928 27.7384 43.701 27.7813H50.9342C52.201 27.7813 53.9301 27.7727 55.0343 29.5651C55.8047 30.4398 56.4638 31.3574 57.0887 32.2407C58.8778 34.7362 60.2815 36.7172 63.4059 36.7172C64.8868 36.7172 66.0681 37.1547 66.9241 38.0208C68.6532 39.7531 68.6189 42.7547 68.5932 45.4046C68.5932 45.7219 68.5847 46.022 68.5847 46.3222C68.5847 48.2518 68.1995 49.4695 67.4034 50.0527C66.9069 50.4128 66.419 50.4043 66.1622 50.3614H63.0635V48.6462H66.3847L66.4105 48.6548C66.5046 48.569 66.8812 48.1146 66.8812 46.3136C66.8812 46.0134 66.8812 45.6961 66.8898 45.3789C66.9155 43.0634 66.9412 40.4477 65.7171 39.2128C65.1949 38.6812 64.4417 38.4238 63.4145 38.4238C59.4085 38.4238 57.5253 35.7825 55.702 33.2355C55.0857 32.3694 54.4437 31.4689 53.7076 30.637L53.6562 30.577L53.6134 30.5084C53.0399 29.5394 52.2267 29.4879 50.9427 29.4965H43.5555L43.4699 29.4793C43.4185 29.4708 43.0676 29.4365 42.8964 29.5822C42.7338 29.7109 42.708 30.0453 42.708 30.2339V49.4781H40.9961V30.2254Z" fill="black"/>
<path d="M2.1001 51.1075H9.35035V49.3923H3.81208V22.9532C3.81208 22.0441 4.54824 21.3152 5.44703 21.3152H40.9707V30.5599H42.6827V21.3752C42.6998 21.1437 42.6997 20.6033 42.3231 20.1574C42.1091 19.9002 41.6983 19.6 40.9878 19.6H5.44703C3.59809 19.6 2.1001 21.1094 2.1001 22.9532V51.1075ZM40.9878 21.1865V21.2037V21.1951C40.9878 21.2037 40.9878 21.1865 40.9878 21.1865Z" fill="black"/>
</svg>
