<svg width="70" height="70" viewBox="0 0 70 70" fill="none" xmlns="http://www.w3.org/2000/svg">
<path d="M17.281 37.3873C14.9127 37.3873 12.9971 39.3576 12.9971 41.7936C12.9971 44.2297 14.9127 46.2 17.281 46.2C19.6493 46.2 21.5649 44.2297 21.5649 41.7936C21.5649 39.3576 19.6493 37.3873 17.281 37.3873ZM17.281 44.6416C15.7399 44.6416 14.486 43.352 14.486 41.7667C14.486 40.1815 15.7399 38.8918 17.281 38.8918C18.8221 38.8918 20.076 40.1815 20.076 41.7667C20.076 43.3609 18.8221 44.6416 17.281 44.6416Z" fill="black"/>
<path d="M52.6931 37.3873C50.3248 37.3873 48.4092 39.3576 48.4092 41.7936C48.4092 44.2297 50.3248 46.2 52.6931 46.2C55.0614 46.2 56.977 44.2297 56.977 41.7936C56.9683 39.3576 55.0527 37.3873 52.6931 37.3873ZM52.6931 44.6416C51.1519 44.6416 49.8981 43.352 49.8981 41.7667C49.8981 40.1815 51.1519 38.8918 52.6931 38.8918C54.2342 38.8918 55.4881 40.1815 55.4881 41.7667C55.4794 43.3609 54.2342 44.6416 52.6931 44.6416Z" fill="black"/>
<path d="M44.0907 32.1032C43.3506 31.4763 42.4711 30.6792 41.6527 30.1687C40.1202 29.2104 38.9099 28.4849 36.6548 28.0193C35.9495 27.8759 35.1658 27.7596 34.2951 27.67C34.2254 27.661 34.0948 27.6879 34.0078 27.7774C33.9207 27.8581 33.8771 27.9924 33.8859 28.0819C33.9033 28.2342 34.1819 31.3778 34.2602 32.3271C34.269 32.3987 34.3125 32.5063 34.3909 32.5778C34.4692 32.6495 34.565 32.6674 34.6086 32.6764C36.6721 32.8017 38.6748 32.9271 40.7384 33.0525C41.7484 33.1153 42.7932 33.2675 43.8033 33.2406C44.822 33.2048 44.6653 32.5778 44.0907 32.1032Z" fill="black"/>
<path d="M44.2038 42.116L25.2919 41.7936C25.1439 41.7936 24.2557 41.7399 22.9845 41.6682C22.9845 41.7041 22.9845 41.7488 22.9845 41.7847C22.9845 42.3131 22.9148 42.8236 22.7842 43.3072C24.2296 43.3878 25.2223 43.4415 25.2571 43.4415L44.169 43.7639C44.3518 43.7639 45.6317 43.7729 47.3557 43.7729C47.1729 43.2535 47.0597 42.6893 47.0249 42.116C45.4837 42.125 44.3605 42.125 44.2038 42.116Z" fill="black"/>
<path d="M19.2552 27.5356C17.566 27.5266 15.9901 27.5266 14.3009 27.7595C13.2386 27.9028 12.307 28.1267 11.2882 28.4671C10.1911 28.8342 9.66001 29.8373 9.31165 30.9299C9.05049 31.736 10.1556 31.335 11.2875 31.4335C13.0551 31.5947 14.8146 31.5499 16.5909 31.6574C17.5051 31.7111 19.0811 31.8096 19.2117 31.8186C19.4468 31.8365 19.6122 31.6305 19.6122 31.4335C19.6122 31.2633 19.6122 28.8611 19.6122 27.9207C19.6122 27.8401 19.5861 27.7327 19.4903 27.6341C19.412 27.5625 19.2987 27.5356 19.2552 27.5356Z" fill="black"/>
<path d="M28.2959 32.2644C26.5196 32.1569 24.7434 32.1032 22.9758 31.942C21.971 31.8631 21.8486 31.4998 21.9131 31.328V28.2929C21.9131 27.3216 22.6216 27.2424 22.9758 27.3243L30.9603 27.5356C31.0039 27.5356 31.117 27.5625 31.1954 27.6341C31.2912 27.7326 31.3173 27.8402 31.3173 27.9207V32.0405C31.3173 32.2376 31.1518 32.4435 30.9167 32.4256C30.7862 32.4167 29.2101 32.3181 28.2959 32.2644Z" fill="black"/>
<path d="M59.5448 42.7H62.804C63.3966 42.3972 63.1991 41.126 63.1991 38.4624C63.1991 35.1329 58.9773 34.2928 56.6312 33.95C51.8411 33.25 50.0633 32.1061 48.5819 30.5927C47.1004 29.0792 44.1868 24.3146 33.372 23.9337C26.4979 23.6915 17.8164 23.8327 13.0757 23.9337C11.4954 24.1355 5.81641 23.9337 5.81641 31.2927C5.81641 34.4405 5.81641 37.857 5.81641 40.5812C6.01394 41.2874 6.94233 42.7 9.07567 42.7C11.209 42.7 10.7547 42.7 11.1497 42.7" stroke="black" stroke-width="2"/>
</svg>
