<svg width="70" height="70" viewBox="0 0 70 70" fill="none" xmlns="http://www.w3.org/2000/svg">
<path d="M52.1792 42.3102C50.9581 39.7325 46.5895 36.1545 42.3688 32.6974C40.0147 30.7706 37.7903 28.9489 36.3721 27.5131C36.017 27.1508 35.4855 27.0353 35.0163 27.206C34.1426 27.5262 33.6032 27.773 33.1782 27.9645C32.53 28.2585 32.3122 28.3583 31.4385 28.4475C31.0521 28.4869 30.7048 28.6969 30.4896 29.0224C28.6566 31.7969 26.7588 31.5607 25.491 31.1303C25.0866 30.9938 25.0141 30.8179 24.9752 30.6499C24.703 29.4976 26.0693 26.8148 27.8399 25.0219C32.053 20.7536 34.2255 19.6852 38.8144 21.7616C44.0203 24.1188 49.2366 25.9643 49.2885 25.9826C49.9704 26.2214 50.7041 25.8592 50.9399 25.174C51.1732 24.4889 50.8181 23.7408 50.1414 23.502C50.0895 23.4836 44.977 21.675 39.8747 19.3623C33.9299 16.6717 30.6683 18.4435 26.0095 23.1634C24.2361 24.9589 21.8276 28.5918 22.4498 31.2563C22.7168 32.3903 23.505 33.2303 24.6768 33.6214C27.6143 34.6031 30.2949 33.6633 32.2912 30.9806C33.1157 30.8521 33.5643 30.6631 34.2383 30.356C34.4819 30.2457 34.7672 30.1171 35.1457 29.9622C36.6287 31.3718 38.6301 33.0124 40.7379 34.737C44.549 37.8581 48.8709 41.3967 49.8432 43.4442C50.3228 44.4548 49.8068 45.1137 49.4568 45.4155C48.9434 45.8618 48.2409 46.0036 47.8598 45.7331C47.4398 45.4418 46.8928 45.4234 46.4598 45.6859C46.0243 45.9483 45.7806 46.4444 45.835 46.9538C45.9232 47.7885 45.1687 48.2663 44.8421 48.4316C44.0123 48.8569 43.1465 48.7835 42.8223 48.4789C42.4594 48.1377 41.9383 48.0379 41.4768 48.2111C41.0154 48.387 40.6938 48.8175 40.6472 49.3163C40.5694 50.1772 39.9394 51.0041 39.1174 51.3269C38.7208 51.4792 38.1452 51.571 37.6294 51.0933C37.3079 50.7993 36.8619 50.6863 36.4446 50.7887C36.0221 50.8937 35.6823 51.2035 35.5346 51.6156C35.4854 51.7469 35.3738 52.0619 34.1605 52.0619C33.2972 52.0619 31.7441 51.4713 30.9846 50.962C30.0746 50.3556 24.3683 46.0454 19.4398 41.8663C18.7476 41.2757 17.5498 40.0105 16.4921 38.8922C15.5534 37.9 14.6954 36.9996 14.2546 36.6216C13.7023 36.1491 12.8857 36.22 12.4268 36.7765C11.9654 37.3303 12.0327 38.1599 12.5798 38.6272C12.9817 38.971 13.7595 39.8031 14.6176 40.7087C15.7739 41.932 16.969 43.1972 17.7728 43.8798C22.6003 47.9722 28.4025 52.39 29.5587 53.1591C30.5128 53.7944 32.5687 54.6868 34.1606 54.6868C35.4387 54.6868 36.4214 54.3902 37.1032 53.8102C38.0157 54.1698 39.0528 54.1724 40.0509 53.7787C41.2306 53.3166 42.2001 52.3848 42.7498 51.2561C43.7712 51.4766 44.9406 51.3217 46.0034 50.781C47.0432 50.2508 47.7949 49.4396 48.1683 48.4919C49.2001 48.547 50.263 48.1769 51.1419 47.413C52.6303 46.1243 53.0398 44.1188 52.1792 42.3102Z" fill="black"/>
<path d="M28.9757 20.5621H17.309C16.5934 20.5621 16.0127 21.1502 16.0127 21.8747C16.0127 22.5992 16.5934 23.1872 17.309 23.1872H28.9757C29.6912 23.1872 30.272 22.5992 30.272 21.8747C30.272 21.1502 29.6912 20.5621 28.9757 20.5621Z" fill="black"/>
<path d="M55.9785 39.5172C55.5766 38.9161 54.7729 38.7507 54.1793 39.1602L50.3889 41.7379C49.7953 42.1421 49.6371 42.9586 50.0364 43.5596C50.2878 43.9351 50.6975 44.1398 51.1149 44.1398C51.3613 44.1398 51.6127 44.0689 51.8357 43.9167L55.626 41.339C56.2196 40.9347 56.3777 40.1184 55.9785 39.5172Z" fill="black"/>
<path d="M47.9297 45.7805C47.0016 45.0403 42.8508 40.738 40.2842 38.029C39.789 37.5039 38.9672 37.4856 38.4512 37.9896C37.9326 38.491 37.917 39.323 38.4123 39.8455C39.0786 40.549 44.9559 46.7519 46.3223 47.844C46.5581 48.033 46.8434 48.1248 47.1234 48.1248C47.5045 48.1248 47.8856 47.9516 48.1448 47.6235C48.5883 47.0563 48.4924 46.2294 47.9297 45.7805Z" fill="black"/>
<path d="M42.7497 48.4133C41.1967 47.156 37.295 42.9586 36.4134 41.9873C35.9259 41.4518 35.1092 41.4203 34.5804 41.9086C34.0541 42.3994 34.0179 43.2316 34.5026 43.7645C34.5492 43.8143 39.2056 48.9043 41.1292 50.4636C41.3679 50.6552 41.6556 50.7497 41.9381 50.7497C42.3167 50.7497 42.6952 50.579 42.9518 50.2588C43.3979 49.6917 43.3072 48.8648 42.7497 48.4133Z" fill="black"/>
<path d="M37.5896 51.0568C35.7411 49.4793 31.9585 45.4025 31.2196 44.6019C30.7296 44.0717 29.9077 44.0428 29.3866 44.5389C28.8629 45.035 28.8369 45.8645 29.3244 46.3948C30.3874 47.5472 34.0066 51.4322 35.9174 53.0649C36.1611 53.2723 36.4566 53.3747 36.7522 53.3747C37.1202 53.3747 37.4885 53.2145 37.7451 52.9074C38.2066 52.3509 38.1366 51.524 37.5896 51.0568Z" fill="black"/>
<path d="M18.2009 18.2968C15.979 16.1652 7.09425 15.4748 4.42391 15.3147C4.05581 15.2964 3.71614 15.4197 3.45692 15.6691C3.19758 15.9158 3.0498 16.2623 3.0498 16.6246V40.2496C3.0498 40.9741 3.63058 41.5621 4.34614 41.5621H12.1239C12.6839 41.5621 13.1817 41.1973 13.3554 40.6565C13.5446 40.0685 18.0117 26.1875 18.6002 19.3625C18.6339 18.9635 18.4887 18.5697 18.2009 18.2968ZM11.1776 38.9372H5.64235V18.0316C9.80869 18.365 14.3043 19.0895 15.9376 19.8927C15.2505 25.6415 12.142 35.8553 11.1776 38.9372Z" fill="black"/>
<path d="M63.9751 17.9371C53.7965 17.9371 48.1499 20.5752 47.914 20.6854C47.577 20.8456 47.3254 21.1422 47.2218 21.5019C47.1181 21.8615 47.1699 22.2474 47.3643 22.5676C48.9665 25.1795 53.9832 39.6852 54.9476 43.2237C55.1032 43.7933 55.614 44.187 56.1974 44.187H63.9751C64.6907 44.187 65.2714 43.599 65.2714 42.8745V19.2495C65.2714 18.5224 64.6907 17.9371 63.9751 17.9371ZM62.6789 41.5621H57.167C55.9381 37.5091 52.3085 26.9408 50.2837 22.5729C52.2618 21.893 56.5112 20.7248 62.6789 20.5779V41.5621Z" fill="black"/>
</svg>
