<svg width="70" height="70" viewBox="0 0 70 70" fill="none" xmlns="http://www.w3.org/2000/svg">
<path d="M54.1398 37.0936C57.0194 37.0936 59.3484 39.4426 59.3484 42.3468C59.3484 45.251 57.0194 47.6 54.1398 47.6C51.2602 47.6 48.9312 45.251 48.9312 42.3468C48.9312 39.4426 51.2602 37.0936 54.1398 37.0936ZM54.1398 45.7422C56.0137 45.7422 57.5381 44.2047 57.5381 42.3148C57.5381 40.4249 56.0137 38.8874 54.1398 38.8874C52.266 38.8874 50.7415 40.4249 50.7415 42.3148C50.7415 44.2154 52.266 45.7422 54.1398 45.7422Z" fill="black"/>
<path d="M19.9136 42.9661C23.3436 42.9661 26.0855 42.9661 26.1596 42.9661H42.6112C42.8229 42.9661 44.7391 42.9341 47.2376 42.8914C47.2905 43.5853 47.4493 44.2473 47.6822 44.8559C44.9826 44.8987 42.8547 44.9307 42.6112 44.9307H26.1702C26.0961 44.9307 23.1001 44.9307 19.4478 44.9307C19.6913 44.3221 19.8501 43.66 19.9136 42.9661Z" fill="black"/>
<path d="M13.0533 37.0936C15.9329 37.0936 18.2619 39.4426 18.2619 42.3468C18.2619 45.251 15.9329 47.6 13.0533 47.6C10.1738 47.6 7.84473 45.251 7.84473 42.3468C7.84473 39.4426 10.1738 37.0936 13.0533 37.0936ZM13.0533 45.7422C14.9272 45.7422 16.4516 44.2047 16.4516 42.3148C16.4516 40.4249 14.9272 38.8874 13.0533 38.8874C11.1795 38.8874 9.65506 40.4249 9.65506 42.3148C9.65506 44.2154 11.1795 45.7422 13.0533 45.7422Z" fill="black"/>
<path d="M47.9256 21.6329C48.1902 21.793 48.4443 21.9959 48.6667 22.2628C49.5771 23.3199 51.4933 26.0853 51.7897 26.5871C52.4143 27.6121 51.9379 28.2101 51.1439 28.2635C50.2017 28.3275 49.1642 28.3382 48.2114 28.3382C48.1585 28.3382 48.0526 28.3382 47.915 28.3382V21.6329H47.9256Z" fill="black"/>
<path d="M38.5031 21.2485C38.6196 21.1416 38.7678 21.0883 38.9055 21.0883C42.0179 21.0883 45.2574 21.0989 45.6809 21.0989C45.9032 21.0989 46.1255 21.1096 46.3479 21.131V28.3382C44.6328 28.3382 41.9332 28.3382 38.9055 28.3488C38.8314 28.3488 38.662 28.3275 38.5243 28.2101C38.4079 28.1139 38.3232 27.9538 38.3232 27.7509C38.3232 26.0959 38.3232 21.9318 38.3232 21.6756C38.3232 21.5153 38.3868 21.3552 38.5031 21.2485Z" fill="black"/>
<path d="M7.05063 30.7512C7.05063 30.1854 7.50585 29.7369 8.05635 29.7369H23.2905L12.1004 13.6142V21.0349L13.8048 22.1774C15.1705 23.0956 15.5411 24.9642 14.6306 26.3522C14.0801 27.185 13.1485 27.6976 12.1428 27.6868H10.0255C8.37395 27.6868 7.04004 26.3415 7.04004 24.6759V23.6081H9.06209V24.6759C9.06209 25.2097 9.49609 25.6475 10.0255 25.6475H12.1428C12.6721 25.6475 13.1062 25.2097 13.1062 24.6759C13.1062 24.3555 12.9473 24.0459 12.6721 23.8644L10.5231 22.423C10.2372 22.2308 10.0784 21.9211 10.0784 21.5794V9.36458C10.0996 7.65626 11.4864 6.27888 13.1803 6.30023C14.0801 6.31091 14.9376 6.71665 15.5093 7.42135L30.5846 25.8183L33.7289 19.476V30.7512H7.05063ZM12.291 10.3256L25.7572 29.7263H28.6473L29.1131 28.7973L29.6001 27.815L13.9637 8.72398C13.5932 8.27554 12.9368 8.21147 12.4816 8.58517C12.2381 8.78804 12.1004 9.08703 12.1004 9.39669V9.71694C12.1004 9.9412 12.1745 10.1547 12.291 10.3256Z" fill="black"/>
<path d="M0 44.557H5.18744V42.4216H2.11732V31.819H35.878V18.9956C35.878 18.7606 35.9097 18.3549 36.1109 18.1841C36.3227 18.0026 36.7672 18.0453 36.8202 18.056L36.9261 18.0773H46.0623C47.6503 18.0667 48.656 18.1307 49.3653 19.3373L49.4183 19.4227L49.4818 19.4974C50.3922 20.5331 51.1862 21.6436 51.9485 22.7326C54.2034 25.9145 56.5324 29.1924 61.487 29.1924C62.7468 29.1924 63.6784 29.5127 64.3348 30.1747C65.8487 31.7122 65.8063 34.9795 65.7851 37.8516C65.7851 38.2467 65.7745 38.6418 65.7745 39.0155C65.7745 41.2578 65.3087 41.8236 65.1923 41.9304L65.1606 41.9197H61.0635V44.0552H64.8853C65.2135 44.1086 65.8063 44.1193 66.4203 43.6708C67.4048 42.9448 67.8813 41.4286 67.8813 39.0262C67.8813 38.6524 67.8813 38.2681 67.8919 37.8837C67.9236 34.5951 67.966 30.858 65.8381 28.6906C64.7794 27.6121 63.3184 27.0676 61.487 27.0676C57.6229 27.0676 55.8761 24.6118 53.6741 21.494C52.8907 20.3943 52.086 19.2519 51.1333 18.1627C49.7676 15.9311 47.6291 15.9419 46.0623 15.9419H37.1166C36.7355 15.8884 35.6451 15.8137 34.777 16.5291C34.3218 16.9135 33.7712 17.6396 33.7712 18.9849V29.6835H0.0105905V44.557H0Z" fill="black"/>
</svg>
