<svg width="70" height="70" viewBox="0 0 70 70" fill="none" xmlns="http://www.w3.org/2000/svg">
<path d="M54.3563 43.5108C54.3815 45.4855 54.3815 47.4349 54.4067 49.4096C54.4067 50.1186 54.4067 50.8274 54.4067 51.5363C54.3815 52.0933 54.3563 52.6502 54.3311 53.1818C54.3059 53.3085 54.2807 53.4097 54.2554 53.5363C53.2974 57.7896 50.3476 60.1188 45.9859 60.1188C38.7249 60.1188 31.4639 60.0175 24.2028 60.1694C20.2697 60.2454 17.3956 58.8276 15.5551 55.3338C15.4039 54.8275 15.2525 54.3212 15.1013 53.8148C15.0761 51.6123 15.0508 49.435 15.0005 47.2324C15.0005 46.3969 15.0005 45.5362 15.0005 44.7006C14.9752 42.169 15.9837 40.1942 18.1015 38.8018C18.1772 38.7512 18.2528 38.7005 18.3284 38.6499C18.404 38.6246 18.5049 38.5993 18.5806 38.5486C18.7318 38.574 18.757 38.5233 18.7318 38.3967C18.883 36.9537 18.8074 35.5359 18.757 34.0928C18.757 33.4093 18.757 32.751 18.757 32.0675C18.757 29.7636 18.757 27.4344 18.757 25.1307C18.757 24.4977 18.757 23.8394 18.7822 23.2065C19.3369 21.1305 20.4967 19.5608 22.6145 18.928C23.27 18.7254 23.0683 18.4216 22.9422 17.9913C22.3875 15.8139 22.3623 13.6873 23.4464 11.6367C23.8498 11.181 24.2784 10.6999 24.6818 10.2442C25.7912 9.4594 27.0013 9.02899 28.3628 9.02899C32.2958 9.02899 36.2289 9.10494 40.1368 9.0037C42.9857 8.92775 45.0531 10.0163 46.3389 12.5734C46.818 14.0671 46.6414 15.5861 46.6414 17.1304C46.6163 17.3076 46.591 17.5102 46.5658 17.6874C46.4902 17.8393 46.4398 17.9913 46.3641 18.1432C46.1372 18.5229 46.0868 18.7761 46.6414 18.928C47.2213 19.1051 47.7508 19.4089 48.3307 19.6622C48.7088 20.0165 49.0618 20.371 49.4399 20.7255C49.7677 21.3837 50.0703 22.0419 50.398 22.7002C50.3476 22.9027 50.3476 23.0799 50.5241 23.2318C50.5493 24.2445 50.5745 25.2319 50.5997 26.2445C50.5997 26.9282 50.5997 27.5863 50.5997 28.2699C50.5997 30.5991 50.5997 32.9283 50.5997 35.2575C50.5997 35.7891 50.5997 36.3461 50.5997 36.8777C50.5241 37.3841 50.4737 37.8904 50.6249 38.3967C50.5745 38.574 50.6754 38.6246 50.8266 38.574C50.877 38.6499 50.9527 38.6752 51.0536 38.6499C51.1544 38.7005 51.23 38.7765 51.3309 38.8271C52.1125 39.4347 52.8183 40.093 53.4235 40.9031C53.9025 41.7133 54.1042 42.6247 54.3563 43.5108ZM26.9761 23.6875C27.0265 23.7382 27.0769 23.7888 27.1526 23.8394C28.1107 24.8015 29.1191 25.6876 30.2032 26.4978C30.2789 26.5737 30.3797 26.6497 30.4553 26.7256L30.4806 26.7509C30.5562 26.8268 30.6319 26.9028 30.7075 26.9535L30.7579 27.0041C30.8084 27.0547 30.884 27.1054 30.9344 27.1813C31.2874 27.4598 31.6151 27.7636 31.9681 28.042C32.2202 28.4218 32.4723 28.3459 32.7245 28.0674C32.9009 28.0168 33.0774 27.9408 33.2287 27.8901C33.3043 27.8649 33.38 27.8396 33.4303 27.8142C34.5145 27.7889 35.6238 27.637 36.6323 28.1939C36.9853 28.3965 37.2626 28.2953 37.5399 28.042C39.7081 26.118 41.8764 24.2193 44.0446 22.2951C44.6749 21.9407 44.3219 21.8141 43.8933 21.8141C42.179 21.8141 40.4646 21.8647 38.7753 21.89C38.4224 21.89 38.0693 21.89 37.7164 21.89C35.044 21.7381 32.3714 21.7381 29.7242 21.89C29.2956 21.89 28.8418 21.8647 28.4132 21.8647C27.43 21.8394 26.4719 21.8141 25.4886 21.7888C25.3122 21.7888 25.0348 21.7128 25.0096 22.0166C24.9844 22.2445 25.2365 22.3204 25.413 22.3964C25.8416 22.7508 26.2702 23.1306 26.6988 23.485C26.7745 23.561 26.8501 23.6116 26.9257 23.6875H26.9761ZM41.5486 36.2954L41.5991 36.3461C41.6495 36.3967 41.7251 36.4473 41.7755 36.5232C42.305 37.0043 42.8597 37.4347 43.3135 37.9664C43.8177 38.5486 44.2715 38.4474 44.8009 38.0423C45.4817 38.0423 46.1372 37.9917 46.818 38.017C47.3474 38.0423 47.5491 37.8145 47.5491 37.2828C47.4987 35.5613 47.4987 33.8397 47.4735 32.1181C47.4735 31.4346 47.4735 30.7257 47.4735 30.0421C47.5491 27.9915 47.6752 25.9661 47.423 23.9407V23.9154C47.1709 23.5103 47.0448 23.8141 46.8936 24.0167L46.8431 24.042C46.7675 24.1179 46.6919 24.1686 46.6163 24.2445C44.8009 25.7888 42.9857 27.3332 41.1957 28.8522C40.0612 29.8143 38.6997 30.6497 39.7081 32.4979C39.7586 32.5991 39.7586 32.751 39.7081 32.8776C39.0022 34.5738 40.1368 35.3587 41.3218 36.1182C41.3721 36.1689 41.473 36.2194 41.5486 36.2954ZM27.1274 42.4221C27.3543 42.4221 27.556 42.3969 27.6568 42.1943C27.8334 42.1436 28.0098 42.1183 28.1611 42.0677C28.2367 42.0171 28.3375 41.9664 28.4132 41.9412C28.6653 41.8905 28.9174 41.8652 29.1696 41.8145C29.3461 41.7893 29.5478 41.7386 29.7242 41.7133C31.8924 41.6879 34.0354 41.6879 36.2037 41.6626C38.7249 41.7639 41.3218 41.5867 43.5404 43.3083C43.6413 42.1436 42.0781 40.498 39.2291 38.574C38.8509 38.2195 38.498 37.8398 38.1198 37.4853C37.792 37.1815 37.4895 36.8524 36.9601 37.1815C35.8003 37.8904 34.5145 37.8398 33.2287 37.6372C32.6488 37.536 32.1698 36.498 31.4639 37.4094C31.0352 37.7638 30.6319 38.1436 30.2032 38.498C30.1276 38.5486 30.052 38.6246 30.0015 38.6752C29.4721 39.1056 28.9679 39.5613 28.4384 39.9917C28.3628 40.0677 28.2872 40.1183 28.2115 40.1942C27.682 40.6499 27.1778 41.0803 26.6484 41.536C26.5979 41.5867 26.5223 41.6626 26.4719 41.7133C26.2197 41.8145 26.018 41.9412 25.9172 42.2196C25.5139 42.4474 25.5895 42.9285 25.7407 43.0804C26.1189 43.3842 26.3458 42.9285 26.6231 42.7007C26.724 42.65 26.8248 42.5993 26.9509 42.5488C27.0013 42.4981 27.0769 42.4474 27.1274 42.4221ZM18.2024 43.4349C17.925 45.5868 18.1015 47.764 18.1267 49.916C18.1267 50.5489 18.1267 51.1819 18.1267 51.7895C18.0763 52.3211 18.0007 52.8275 18.2528 53.3338C18.2275 53.3591 18.2024 53.4097 18.2024 53.4351C18.2275 53.4856 18.278 53.5363 18.3284 53.587C18.3789 53.7642 18.404 53.9161 18.4545 54.0933C18.5049 54.1693 18.5553 54.2452 18.5806 54.3465C18.7066 54.8781 19.0344 55.2832 19.4629 55.6123L19.4882 55.7136L19.589 55.7389C19.7907 56.0174 20.0428 56.2452 20.3958 56.3465C21.1269 56.9288 21.959 57.106 22.8666 57.0554C25.1357 57.0554 27.4047 57.0554 29.6738 57.0554C30.3545 57.0554 31.0101 57.0554 31.6908 57.0554C34.0354 57.0554 36.3802 57.0554 38.7501 57.0554C39.4308 57.0554 40.0863 57.0554 40.767 57.0554C42.8597 57.106 44.9775 57.182 47.0701 57.0047C47.2718 57.0554 47.4482 57.0301 47.5995 56.8782C49.3391 56.2199 50.7005 55.2326 50.877 53.1818C51.4317 53.0806 51.3057 52.6249 51.3057 52.2704C51.3057 49.5869 51.356 46.9033 51.3057 44.2197C51.2804 42.4474 50.0198 41.2322 48.2046 41.0298C47.1709 40.9031 46.6163 41.0803 46.6666 42.3969C46.7675 45.0298 46.6666 47.6881 46.6414 50.321C46.3641 50.5995 46.0868 50.8527 45.8094 51.1312C45.2296 51.1565 44.6497 51.1819 44.0698 51.1819C37.3382 51.1819 30.6067 51.2071 23.9002 51.2071C22.3623 50.7262 22.7405 49.4096 22.6145 48.321C22.6145 47.6375 22.6145 46.9792 22.6145 46.2957C22.6901 44.5994 22.7657 42.9285 22.564 41.2576C21.9337 40.9538 21.3034 41.0044 20.6731 41.2576C19.4882 41.4601 18.7066 42.0931 18.3789 43.2576C18.3032 43.2576 18.2528 43.3335 18.2024 43.4349ZM43.5656 14.3456C43.4899 13.2569 42.9353 12.5481 41.8512 12.2949C41.7503 12.2696 41.6495 12.219 41.5234 12.1936C40.9436 12.0417 40.3385 12.0924 39.7586 12.1683C39.0779 12.1683 38.3971 12.1683 37.7416 12.1683C34.4641 12.0924 31.1865 12.0671 27.909 12.1936C27.7073 12.143 27.5308 12.1936 27.4047 12.3455C26.5979 12.5481 26.0937 13.0544 25.9172 13.8646C25.7407 13.9911 25.6903 14.143 25.7659 14.3456C25.6399 14.8519 25.6651 15.3582 25.7407 15.8646C25.6651 16.219 25.6147 16.5735 25.9172 16.8773C26.018 17.6621 26.4971 18.1178 27.2283 18.3963C27.2786 18.4216 27.3543 18.4723 27.4047 18.4975C28.9174 18.8773 30.4302 18.6494 31.9681 18.6242C32.674 18.6242 33.38 18.6242 34.0859 18.6242C36.481 18.7001 38.9014 18.7254 41.2965 18.5989C43.3135 18.5735 44.0951 16.4469 43.5656 14.3456ZM32.7245 44.8273C31.9681 44.8273 31.1865 44.8273 30.4302 44.8273C30.1528 44.7513 29.9007 44.7766 29.6738 44.9539C28.0098 45.2577 26.7492 46.0678 26.1441 47.7134C25.9929 47.8147 25.8416 47.8906 26.1693 47.9666L26.2197 48.0425L26.3206 48.0172C30.3293 48.2197 34.338 48.1185 38.3719 48.0932C39.9854 48.0932 41.6242 48.321 43.2379 47.9666C43.4647 47.6881 43.2379 47.5109 43.1118 47.3083C42.305 46.0931 41.0948 45.4349 39.809 44.9285C39.5821 44.7513 39.3552 44.7006 39.0779 44.7766C37.5652 44.7766 36.0272 44.7766 34.5145 44.7766C33.8842 44.8273 33.3043 44.8273 32.7245 44.8273ZM28.8923 29.5358C28.8166 29.4852 28.7662 29.4092 28.6906 29.3586C27.6317 28.3206 26.5475 27.3585 25.3625 26.4978C25.2869 26.4218 25.2113 26.3711 25.1608 26.2952C24.1524 25.3838 23.1691 24.4977 22.0597 23.5103C21.959 23.8901 21.9085 24.0167 21.9085 24.1179C21.9085 28.4472 21.9085 32.7764 21.8833 37.1056C21.8833 37.7638 22.085 38.0423 22.7405 37.9664C23.1186 37.9157 23.4969 37.9157 23.8498 37.9157C24.1019 37.9664 24.3793 38.017 24.6314 38.0423C25.1104 38.4727 25.4886 38.4727 26.018 37.9917C27.1274 36.9537 28.2872 35.9916 29.4469 35.0042C29.7746 34.7258 30.0772 34.4473 29.8755 33.9409C29.573 33.1562 29.7495 32.3713 29.7495 31.5611C30.405 30.7257 29.9763 30.194 29.22 29.789C29.0687 29.713 28.9679 29.6117 28.8923 29.5358ZM34.6658 30.7763C33.5564 30.7763 32.674 31.713 32.6992 32.8017C32.7245 33.8397 33.6069 34.6752 34.6658 34.6752C35.7751 34.6752 36.7079 33.7131 36.6575 32.6498C36.6071 31.6118 35.6995 30.751 34.6658 30.7763Z" fill="#151515"/>
</svg>
