<svg width="70" height="70" viewBox="0 0 70 70" fill="none" xmlns="http://www.w3.org/2000/svg">
<path d="M17.1266 40.5023C14.4506 40.5023 12.2861 42.6938 12.2861 45.4033C12.2861 48.1128 14.4506 50.3042 17.1266 50.3042C19.8027 50.3042 21.9671 48.1128 21.9671 45.4033C21.9671 42.6938 19.8027 40.5023 17.1266 40.5023ZM17.1266 48.571C15.3852 48.571 13.9685 47.1366 13.9685 45.3734C13.9685 43.6102 15.3852 42.1758 17.1266 42.1758C18.868 42.1758 20.2847 43.6102 20.2847 45.3734C20.2847 47.1465 18.868 48.571 17.1266 48.571Z" fill="black"/>
<path d="M48.9339 45.9909C45.7463 45.9909 43.1981 45.9909 43.1293 45.9909H27.8503C27.6536 45.9909 25.8728 45.961 23.551 45.9211C23.5017 46.5686 23.3542 47.1863 23.1377 47.7541C25.6465 47.7939 27.624 47.8238 27.8503 47.8238H43.1293C43.1981 47.8238 45.9824 47.8238 49.3766 47.8238C49.1405 47.256 48.9929 46.6384 48.9339 45.9909Z" fill="black"/>
<path d="M55.3092 40.5023C52.6331 40.5023 50.4688 42.6938 50.4688 45.4033C50.4688 48.1128 52.6331 50.3042 55.3092 50.3042C57.9853 50.3042 60.1497 48.1128 60.1497 45.4033C60.1497 42.6938 57.9853 40.5023 55.3092 40.5023ZM55.3092 48.571C53.5679 48.571 52.1511 47.1366 52.1511 45.3734C52.1511 43.6102 53.5679 42.1758 55.3092 42.1758C57.0506 42.1758 58.4673 43.6102 58.4673 45.3734C58.4673 47.1465 57.0506 48.571 55.3092 48.571Z" fill="black"/>
<path d="M8.95546 26.8253C8.70951 26.9747 8.47336 27.1639 8.26675 27.4131C7.42065 28.3992 5.63991 30.9792 5.36444 31.4473C4.78397 32.4036 5.22669 32.9615 5.96457 33.0113C6.84018 33.0711 7.80435 33.081 8.6898 33.081C8.73898 33.081 8.83741 33.081 8.96531 33.081V26.8253H8.95546Z" fill="black"/>
<path d="M17.0202 26.4667C16.912 26.3672 16.7742 26.3174 16.6463 26.3174C13.7539 26.3174 10.7433 26.3273 10.3498 26.3273C10.1432 26.3273 9.93652 26.3372 9.72998 26.3572V33.0811C11.3237 33.0811 13.8326 33.0811 16.6463 33.091C16.7152 33.091 16.8727 33.0712 17.0005 32.9615C17.1088 32.8719 17.1875 32.7225 17.1875 32.5332C17.1875 30.9892 17.1875 27.1043 17.1875 26.8652C17.1875 26.7158 17.1284 26.5664 17.0202 26.4667Z" fill="black"/>
<path d="M43.9605 26.5278C44.2065 26.6773 44.4426 26.8665 44.6492 27.1156C45.4954 28.1018 48.6588 30.6817 48.9343 31.1499C49.5147 32.1062 49.072 32.664 48.3342 32.7138C47.4586 32.7737 45.1116 32.7836 44.2262 32.7836C44.177 32.7836 44.0786 32.7836 43.9507 32.7836V26.5278H43.9605Z" fill="black"/>
<path d="M27.5404 26.4667C27.6486 26.3672 27.7863 26.3174 27.9142 26.3174C30.8067 26.3174 41.4221 26.3273 41.8157 26.3273C42.0223 26.3273 42.2289 26.3372 42.4355 26.3572V44.2811C40.8417 44.2811 30.7279 44.2811 27.9142 44.291C27.8453 44.291 27.688 44.2712 27.5601 44.1615C27.4518 44.0719 27.373 43.9225 27.373 43.7332C27.373 42.1892 27.373 27.1043 27.373 26.8652C27.373 26.7158 27.4322 26.5664 27.5404 26.4667Z" fill="black"/>
<path d="M25.3117 26.4667C25.2035 26.3672 25.0657 26.3174 24.9378 26.3174C22.0454 26.3174 19.0348 26.3273 18.6413 26.3273C18.6413 26.3273 18.6413 26.3273 18.6314 26.3273C18.2871 26.3273 18.0215 26.6162 18.0215 26.9549V32.4535C18.0215 32.8022 18.297 33.0811 18.6413 33.0811C20.2253 33.0811 22.4586 33.0811 24.9378 33.091C25.0067 33.091 25.1642 33.0712 25.2921 32.9615C25.4003 32.8719 25.479 32.7225 25.479 32.5332C25.479 30.9892 25.479 27.1043 25.479 26.8652C25.479 26.7158 25.4101 26.5664 25.3117 26.4667Z" fill="black"/>
<path d="M63.928 46.489C63.4655 46.489 63.131 46.4094 63.0622 46.3894L63.5541 44.4569H63.5443C63.5541 44.4569 64.292 44.6163 64.7445 44.2577C65.1676 43.919 65.266 43.1619 65.266 42.5941C65.266 42.0065 65.2955 41.3888 65.325 40.7912C65.512 37.0058 65.384 34.645 61.9701 33.7485C61.3503 33.5891 60.7698 33.4397 60.2091 33.3002C55.9589 32.2344 53.1451 31.5271 50.046 27.6023C47.3602 24.1956 45.4908 24.2055 38.5646 24.2354C37.8759 24.2354 37.1381 24.2454 36.351 24.2454H6.14721C5.81271 24.2652 4.30745 24.4844 4.30745 26.7755V44.1581C4.41567 44.2477 4.81905 44.4968 5.97996 44.4968H9.46278V46.489H5.98981C2.44799 46.489 2.34961 44.5466 2.34961 44.3174V26.7755C2.34961 24.5342 3.36297 23.4186 4.20906 22.8806C5.11419 22.3029 6.00949 22.2631 6.10787 22.2631H36.351C37.1381 22.2631 37.8661 22.2631 38.5548 22.2531C45.6483 22.2232 48.3047 22.2133 51.5808 26.3672C54.2568 29.7639 56.5393 30.3317 60.6813 31.3777C61.2519 31.5171 61.8324 31.6665 62.462 31.8359C67.6763 33.2105 67.4501 37.6533 67.2829 40.9107C67.2533 41.5083 67.2238 42.0761 67.2238 42.6141C67.2238 44.0983 66.791 45.1841 65.935 45.8615C65.266 46.3695 64.4986 46.489 63.928 46.489Z" fill="black"/>
</svg>
