<svg width="70" height="70" viewBox="0 0 70 70" fill="none" xmlns="http://www.w3.org/2000/svg">
<path d="M45.4566 26.4331C45.2037 27.4173 44.6982 28.243 43.8133 28.8145C42.7072 29.5131 43.1813 30.7832 42.8652 31.7993C41.3483 35.7685 38.6306 38.5628 34.6172 39.9917C33.5427 40.1504 32.4999 40.2775 31.4254 40.4362C28.8341 40.468 26.5271 39.6424 24.2834 38.404C23.7461 37.9595 23.2089 37.5149 22.6717 37.0703C21.1864 35.3875 19.9855 33.5458 19.3219 31.3865C18.911 30.5292 19.5747 29.2273 18.2474 28.7828C16.0985 26.6871 16.0985 22.9401 18.2474 20.8762C18.6582 20.4951 19.2903 20.1459 19.0375 19.352C19.1639 18.3042 19.2903 17.2881 19.4167 16.2402C20.744 11.763 23.6198 8.8417 28.0123 7.38104C29.0553 7.25403 30.1297 7.12702 31.1726 7C33.6691 7.15877 35.9761 7.92085 38.0934 9.25453C38.599 9.69903 39.1362 10.1436 39.6419 10.5881C41.1587 12.3345 42.17 14.335 42.8336 16.5577C42.802 17.4151 42.9601 18.2725 43.1497 19.098C42.9601 19.9553 43.1813 20.5269 44.0029 21.0032C45.1721 21.67 45.4566 22.8132 45.425 24.0832C45.425 24.8454 45.4566 25.6392 45.4566 26.4331ZM37.4613 21.9559C34.3327 21.416 31.1726 21.3842 27.9808 21.67C25.7687 21.5113 23.6198 21.9875 21.4708 22.3368C22.1029 24.3056 23.1141 24.8454 25.7687 24.7183C29.0237 24.7183 32.2787 24.7183 35.5336 24.7183C38.599 25.0676 40.3055 24.4008 40.7795 22.3368C39.7051 22.2099 38.599 21.8288 37.4613 21.9559ZM32.405 27.0681C29.8453 27.0681 27.254 27.0999 24.6942 27.0046C22.8613 26.9411 21.1232 26.5283 19.9224 24.8454C19.6695 24.4961 19.6379 23.7975 18.8479 23.8292C18.911 25.0041 18.279 26.4648 19.8275 26.9093C20.9652 27.2586 21.1864 27.8619 21.2496 28.8145C21.4076 31.3865 22.3872 33.5775 24.3782 35.2922C24.8522 35.832 25.3579 36.3401 26.053 36.5623C27.3803 37.6102 28.9604 37.9912 30.6037 38.0547C35.9761 38.3405 40.4635 34.4031 41.0323 28.9415C41.0955 28.2748 40.9692 27.5444 41.6959 27.0998C43.4656 26.0202 43.6552 25.4169 42.9601 23.4165C41.6959 26.1473 39.5154 27.1316 36.6713 26.9728C36.1024 26.9411 35.502 27.0046 34.9332 27.0364C34.1115 27.0681 33.2583 27.0681 32.405 27.0681ZM36.1973 10.8104C33.0054 8.71468 29.6873 8.68292 26.4323 10.5246C23.0825 12.3981 21.5024 15.3829 21.3444 19.1933C21.3128 19.7331 21.3444 20.1142 22.0713 20.0189C24.2518 19.7331 26.4323 19.4791 28.6129 19.2251C32.405 19.352 36.2289 19.2567 40.0211 19.9871C40.6847 20.1142 40.9691 19.9236 40.9375 19.1933C40.6531 15.6369 39.4206 12.6838 36.1973 10.8104Z" fill="black"/>
<path d="M42.5171 42.8495C43.1492 43.0718 43.7812 43.3258 44.4132 43.548C45.0769 43.9609 45.7089 44.4054 46.3725 44.8182C47.0362 45.2628 47.2574 45.8978 46.7833 46.5646C46.3409 47.1679 45.7405 47.1044 45.1401 46.6599C44.1604 45.9613 43.1175 45.358 41.9167 45.1675C41.1899 44.9135 40.463 44.6911 39.7046 44.8182C36.6392 43.9926 34.7431 45.7708 32.9418 47.8665C31.8041 49.2001 32.4361 50.6608 32.373 52.0579C32.2149 53.1375 32.2149 54.1854 32.373 55.265C32.3414 55.6778 32.3098 56.0906 32.2781 56.5034C32.1833 58.0275 31.7725 58.2816 30.2872 57.7418C30.1925 56.8844 30.066 56.0589 29.9713 55.2016C30.0028 53.6456 29.9396 52.0579 30.0976 50.502C30.2556 48.8826 29.6868 47.7712 28.3595 46.9774C27.9171 46.3423 27.4114 45.8026 26.7478 45.358C25.6418 44.1513 24.1881 44.8182 22.924 44.8182C18.2785 44.7547 14.7076 47.7077 13.6963 52.2802C13.2223 54.4077 13.5066 56.5987 13.5066 58.7261C13.5066 59.5835 13.5066 60.409 13.5066 61.2664C13.4751 61.5839 13.4435 61.9014 13.4435 62.219C13.5383 63.7749 12.7482 65.9977 13.7595 66.728C14.8023 67.5218 16.8881 66.9185 18.4997 66.9185C19.037 66.982 19.037 66.7279 18.879 66.3152C19.0686 63.1398 19.037 59.9645 18.879 56.8209C19.1318 55.9001 18.7842 54.9158 19.1634 53.9949C19.2582 53.8996 19.353 53.8361 19.4794 53.7408C20.0166 53.5821 20.5223 53.7091 20.9647 53.9949C20.9331 55.5825 21.66 56.1541 23.2085 55.9001C23.9037 55.7731 24.4409 56.2494 24.4409 57.0115C24.4409 57.7418 23.9037 58.0911 23.1768 58.1228C22.7976 58.1228 22.45 58.1546 22.0708 58.1228C21.4387 58.0593 21.0911 58.1863 21.1227 58.9484C21.1859 60.3456 21.1859 61.7745 21.2175 63.1716C21.0595 64.2512 21.0595 65.2991 21.2175 66.3787C21.0595 67.2678 21.7547 66.982 22.1024 66.982C24.9782 66.982 27.8539 66.9503 30.7296 66.9503C31.6777 66.9503 32.6257 66.9503 33.5738 66.9503C33.9214 66.982 34.3323 66.9503 34.6483 67.0772C35.1855 67.2678 35.5331 67.6805 35.4068 68.2839C35.2803 68.9189 34.8063 69.2365 34.1426 69.2365C32.8786 69.2365 31.6461 69.2682 30.3821 69.3C29.434 69.3 28.4859 69.3 27.5379 69.3C24.3777 69.3 21.2175 69.3 18.0889 69.3C17.1409 69.3 16.1928 69.3 15.2447 69.3C11.421 69.0777 11.421 69.0777 11.1997 64.4735C11.1997 63.6162 11.1997 62.7906 11.1997 61.9332C11.263 58.6626 11.3261 55.3603 11.3893 52.0897C11.8318 50.2798 12.5587 48.6285 13.5699 47.0727C14.2968 46.3423 14.992 45.612 15.7188 44.9135C17.2041 43.9926 18.7209 43.1987 20.4275 42.8178C23.7773 42.3096 27.1587 42.786 30.5084 42.532C31.3617 42.532 32.1833 42.532 33.0366 42.532C36.1968 42.6907 39.3885 42.3096 42.5171 42.8495ZM32.7206 44.9452C31.6777 44.6594 30.698 44.8182 29.592 44.8182C31.0773 46.6916 31.0773 46.6916 32.7206 44.9452Z" fill="black"/>
<path d="M32.0888 15.8593C32.2468 15.891 32.4048 15.9227 32.5629 15.9227C33.4161 15.9227 34.3957 15.8593 34.3957 17.0659C34.3957 18.2725 33.3845 18.1454 32.5312 18.1772C31.3303 18.1772 30.1295 18.209 28.9286 18.2407C28.1702 18.0502 27.6961 17.6057 27.9174 16.7801C28.107 16.018 28.7706 15.9545 29.4342 15.9862C30.3191 15.9227 31.204 15.891 32.0888 15.8593Z" fill="black"/>
<path fill-rule="evenodd" clip-rule="evenodd" d="M39.8998 51.1V66.9457H57.3417V51.1H39.8998ZM39.0544 49C38.3616 49 37.7998 49.5652 37.7998 50.2624V67.7833C37.7998 68.4805 38.3616 69.0457 39.0544 69.0457H58.1871C58.88 69.0457 59.4417 68.4805 59.4417 67.7833V50.2624C59.4417 49.5652 58.88 49 58.1871 49H39.0544Z" fill="black"/>
</svg>
