<svg width="70" height="70" viewBox="0 0 70 70" fill="none" xmlns="http://www.w3.org/2000/svg">
<path d="M14.5471 37.4374C11.7841 37.4374 9.54932 39.7095 9.54932 42.5187C9.54932 45.3279 11.7841 47.6 14.5471 47.6C17.3101 47.6 19.545 45.3279 19.545 42.5187C19.545 39.7095 17.3101 37.4374 14.5471 37.4374ZM14.5471 45.8029C12.7491 45.8029 11.2864 44.3157 11.2864 42.4877C11.2864 40.6596 12.7491 39.1724 14.5471 39.1724C16.3451 39.1724 17.8079 40.6596 17.8079 42.4877C17.8079 44.3261 16.3451 45.8029 14.5471 45.8029Z" fill="black"/>
<path d="M55.8601 37.4374C53.0971 37.4374 50.8623 39.7095 50.8623 42.5187C50.8623 45.3279 53.0971 47.6 55.8601 47.6C58.6231 47.6 60.858 45.3279 60.858 42.5187C60.8478 39.7095 58.613 37.4374 55.8601 37.4374ZM55.8601 45.8029C54.0622 45.8029 52.5994 44.3157 52.5994 42.4877C52.5994 40.6596 54.0622 39.1724 55.8601 39.1724C57.6582 39.1724 59.1209 40.6596 59.1209 42.4877C59.1108 44.3261 57.6582 45.8029 55.8601 45.8029Z" fill="black"/>
<path d="M45.8241 31.3439C44.9607 30.621 43.9347 29.7018 42.9798 29.1131C41.192 28.008 39.78 27.1715 37.1491 26.6345C36.3262 26.4692 35.412 26.335 34.3962 26.2316C34.315 26.2213 34.1625 26.2523 34.0609 26.3556C33.9594 26.4485 33.9086 26.6034 33.9188 26.7067C33.9391 26.8823 34.2641 30.5074 34.3556 31.6021C34.3657 31.6848 34.4165 31.8087 34.508 31.8913C34.5993 31.9739 34.7111 31.9946 34.7619 32.005C37.1694 32.1495 39.5057 32.2941 41.9132 32.4387C43.0916 32.511 44.3105 32.6866 45.4889 32.6556C46.6774 32.6142 46.4945 31.8913 45.8241 31.3439Z" fill="black"/>
<path d="M30.5057 26.0768C28.535 26.0665 26.6964 26.0665 24.7257 26.335C23.4864 26.5002 22.3995 26.7584 21.211 27.1508C19.931 27.5742 19.3114 28.731 18.9051 29.991C18.6003 30.9205 19.8701 31.0445 21.1907 31.1581C23.2527 31.3439 25.325 31.406 27.3972 31.5299C28.4639 31.5918 30.3025 31.7055 30.4549 31.7158C30.7292 31.7364 30.9222 31.4989 30.9222 31.2716C30.9222 31.0755 30.9222 27.6053 30.9222 26.5208C30.9222 26.4279 30.8916 26.3039 30.7799 26.1904C30.6886 26.1078 30.5564 26.0768 30.5057 26.0768Z" fill="black"/>
<path d="M45.9562 42.8905L23.8928 42.5187C23.7201 42.5187 22.6839 42.4567 21.2009 42.3741C21.2009 42.4154 21.2009 42.4671 21.2009 42.5084C21.2009 43.1177 21.1196 43.7064 20.9673 44.2641C22.6535 44.3571 23.8116 44.419 23.8522 44.419L45.9156 44.7908C46.129 44.7908 47.6222 44.8011 49.6335 44.8011C49.4202 44.2021 49.2881 43.5515 49.2474 42.8905C47.4495 42.9008 46.1391 42.9008 45.9562 42.8905Z" fill="black"/>
<path d="M67.4098 37.4684C67.2981 37.2515 67.1965 37.0863 67.1152 36.9623C67.0035 36.7868 66.9527 36.7041 66.8918 36.5182L66.8309 36.3117C66.7293 35.9605 66.5971 35.5165 66.4448 35.186C66.0588 34.3804 65.5915 33.833 64.8195 33.2856C63.8545 32.6039 62.4526 31.8294 59.2833 31.1891C57.9526 30.9205 57.0384 30.7553 56.0733 30.59C55.088 30.4145 54.0621 30.2286 52.5282 29.9187L52.4571 29.9084C51.3904 29.6915 50.9943 29.6192 50.141 29.0821C49.3486 28.5864 48.2414 27.8634 47.2662 27.2231C46.8802 26.965 46.5145 26.7274 46.1997 26.5208L45.7832 26.242C43.6805 24.8684 42.2888 23.9595 39.0787 23.1953C36.7932 22.6479 34.2232 22.4 31.0132 22.4C28.1181 22.4 26.0256 22.4207 23.4149 22.6789C21.0786 22.9061 18.3664 23.7116 15.3595 25.0647C14.3742 25.5087 13.4193 26.0045 12.4848 26.4899L11.987 26.7481C11.0423 27.2438 10.2296 27.5743 9.10212 27.7395L6.654 28.101C6.57273 28.1113 6.50162 28.1216 6.42036 28.132C5.92261 28.1836 4.87633 28.2869 4.50047 29.361C4.35826 29.7638 4.32778 30.1769 4.30746 30.5487C4.2973 30.683 4.28715 30.8173 4.277 30.9412C4.23636 31.251 4.17541 31.7571 4.10431 32.3148C3.99257 33.2133 3.8605 34.3391 3.79956 34.7108C3.74877 35 3.58624 35.3202 3.41355 35.6713C3.32213 35.8573 3.22055 36.0534 3.13928 36.2497C2.38758 38.0158 2.89548 41.2174 4.55126 42.2915C5.36391 42.8182 6.35941 43.2313 7.2838 43.4379C7.3549 43.4586 7.60886 43.4792 8.00503 43.5102C7.9644 43.19 7.93393 42.8699 7.93393 42.5394C7.93393 42.2192 7.95424 41.9094 7.99487 41.5995C7.82218 41.5892 7.71044 41.5789 7.6495 41.5686C6.95874 41.4136 6.17657 41.0831 5.56708 40.6907C4.82553 40.2053 4.41921 38.0778 4.86617 37.0243C4.92711 36.8797 5.00838 36.7145 5.08964 36.5492C5.31313 36.1155 5.55692 35.6197 5.6585 35.0413C5.7296 34.6179 5.86166 33.5645 5.98356 32.5523C6.0445 32.005 6.10546 31.5092 6.14609 31.1994C6.16641 31.0341 6.17657 30.8586 6.19689 30.6933C6.20704 30.4868 6.22735 30.2492 6.26799 30.0943C6.35941 30.0736 6.52194 30.053 6.62352 30.0426C6.73526 30.0323 6.83684 30.022 6.94858 30.0013L9.39673 29.6399C10.768 29.4333 11.7737 29.0202 12.8606 28.4625L13.3584 28.2042C14.2624 27.7395 15.197 27.2438 16.1315 26.8307C18.9555 25.5604 21.4747 24.8168 23.608 24.5999C26.1373 24.352 28.1893 24.3313 31.0234 24.3313C34.0912 24.3313 36.5189 24.5689 38.6623 25.075C41.5574 25.7669 42.7763 26.5518 44.7775 27.8738L45.2042 28.1526C45.519 28.3592 45.8848 28.5968 46.2707 28.8447C47.2561 29.485 48.3633 30.2182 49.176 30.7243C50.3137 31.4369 50.9841 31.5712 52.1117 31.7881L52.1827 31.7984C53.737 32.1082 54.7731 32.2941 55.7686 32.4697C56.7235 32.6453 57.6377 32.8002 58.9379 33.0687C61.7619 33.6368 62.9606 34.2978 63.763 34.8555C64.271 35.2169 64.5249 35.5061 64.7687 36.0225C64.8602 36.2084 64.9617 36.5802 65.043 36.8487C65.0633 36.9313 65.0837 37.0036 65.104 37.076C65.236 37.5097 65.3985 37.7679 65.5306 37.9952C65.6017 38.1087 65.6626 38.2017 65.7235 38.336C65.876 38.6458 66.1096 39.5443 65.9674 42.0436C65.9369 42.56 64.9008 42.7873 64.7789 42.8182C64.1694 42.9421 63.4685 42.9525 62.8488 42.9525C62.8387 42.9525 62.7066 42.9525 62.4832 42.9525C62.4425 43.6238 62.3104 44.2641 62.087 44.8631C62.5542 44.8631 62.8285 44.8631 62.8488 44.8631C63.5599 44.8631 64.3725 44.8528 65.1547 44.6876C66.7699 44.3571 67.7755 43.4069 67.8466 42.1469C67.9888 39.8334 67.8466 38.3463 67.4098 37.4684Z" fill="black"/>
</svg>
