<svg width="70" height="70" viewBox="0 0 70 70" fill="none" xmlns="http://www.w3.org/2000/svg">
<path d="M20.9116 47.4H15.8417C15.142 47.4 14.5742 46.8288 14.5742 46.125C14.5742 45.4212 15.142 44.85 15.8417 44.85H20.9116C21.6113 44.85 22.1792 45.4212 22.1792 46.125C22.1792 46.8288 21.6113 47.4 20.9116 47.4Z" fill="black"/>
<path d="M62.1047 47.4H58.936C58.2363 47.4 57.6686 46.8288 57.6686 46.1249C57.6686 45.4212 58.2363 44.85 58.936 44.85H61.0527L62.7613 35.6904C62.7385 31.0034 58.7586 27 53.8661 27H45.5437L41.5106 44.85H48.7961C49.4957 44.85 50.0636 45.4212 50.0636 46.1249C50.0636 46.8288 49.4957 47.4 48.7961 47.4H39.9236C39.5384 47.4 39.1733 47.224 38.9325 46.9206C38.6916 46.6196 38.6004 46.2219 38.6866 45.8445L43.2952 25.4445C43.427 24.8605 43.939 24.45 44.5322 24.45H53.8661C60.1554 24.45 65.2735 29.5984 65.2735 35.925L63.3494 46.3596C63.2379 46.9639 62.7156 47.4 62.1047 47.4Z" fill="black"/>
<path d="M53.8663 52.4999C50.3731 52.4999 47.5288 49.6413 47.5288 46.1249C47.5288 42.6084 50.3731 39.7499 53.8663 39.7499C57.3595 39.7499 60.2037 42.6084 60.2037 46.1249C60.2037 49.6413 57.3595 52.4999 53.8663 52.4999ZM53.8663 42.2999C51.7699 42.2999 50.0639 44.016 50.0639 46.1249C50.0639 48.2338 51.7699 49.9499 53.8663 49.9499C55.9627 49.9499 57.6689 48.2338 57.6689 46.1249C57.6689 44.016 55.9627 42.2999 53.8663 42.2999Z" fill="black"/>
<path d="M25.9815 52.4999C22.4883 52.4999 19.644 49.6413 19.644 46.1249C19.644 42.6084 22.4883 39.7499 25.9815 39.7499C29.4746 39.7499 32.3189 42.6084 32.3189 46.1249C32.3189 49.6413 29.4746 52.4999 25.9815 52.4999ZM25.9815 42.2999C23.885 42.2999 22.1791 44.016 22.1791 46.125C22.1791 48.2338 23.885 49.9499 25.9815 49.9499C28.0779 49.9499 29.7839 48.2338 29.7839 46.1249C29.7839 44.016 28.0779 42.2999 25.9815 42.2999Z" fill="black"/>
<path d="M20.9113 24.4499H10.7714C10.0718 24.4499 9.50391 23.8787 9.50391 23.175C9.50391 22.4711 10.0718 21.8999 10.7714 21.8999H20.9113C21.611 21.8999 22.1788 22.4711 22.1788 23.175C22.1788 23.8787 21.611 24.4499 20.9113 24.4499Z" fill="black"/>
<path d="M20.9116 32.0999H8.23673C7.53708 32.0999 6.96924 31.5287 6.96924 30.8249C6.96924 30.1211 7.53708 29.5499 8.23673 29.5499H20.9116C21.6113 29.5499 22.1791 30.1211 22.1791 30.8249C22.1791 31.5287 21.6113 32.0999 20.9116 32.0999Z" fill="black"/>
<path d="M20.9114 39.75H5.70157C5.00192 39.75 4.43408 39.1788 4.43408 38.475C4.43408 37.7712 5.00192 37.2 5.70157 37.2H20.9114C21.6111 37.2 22.1789 37.7712 22.1789 38.475C22.1789 39.1788 21.6111 39.75 20.9114 39.75Z" fill="black"/>
<path d="M39.9239 47.4H31.0516C30.3519 47.4 29.784 46.8288 29.784 46.125C29.784 45.4212 30.3519 44.85 31.0516 44.85H38.9125L44.6721 19.35H15.8417C15.142 19.35 14.5742 18.7788 14.5742 18.075C14.5742 17.3712 15.142 16.8 15.8417 16.8H46.2615C46.6467 16.8 47.0118 16.9759 47.2526 17.2794C47.4935 17.5803 47.5848 17.9781 47.4985 18.3555L41.1611 46.4055C41.0293 46.9895 40.5146 47.4 39.9239 47.4Z" fill="black"/>
</svg>
