<svg width="70" height="70" viewBox="0 0 70 70" fill="none" xmlns="http://www.w3.org/2000/svg">
<path d="M13.9843 37.2816C11.121 37.2816 8.80518 39.5886 8.80518 42.4408C8.80518 45.2931 11.121 47.6 13.9843 47.6C16.8476 47.6 19.1634 45.2931 19.1634 42.4408C19.1528 39.5886 16.837 37.2816 13.9843 37.2816ZM13.9843 45.7754C12.1211 45.7754 10.6052 44.2654 10.6052 42.4093C10.6052 40.5533 12.1211 39.0433 13.9843 39.0433C15.8475 39.0433 17.3634 40.5533 17.3634 42.4093C17.3528 44.2654 15.8475 45.7754 13.9843 45.7754Z" fill="black"/>
<path d="M48.0066 43.049C44.5959 43.049 41.8695 43.049 41.7958 43.049H25.448C25.2374 43.049 23.3321 43.0176 20.8479 42.9756C20.7952 43.6572 20.6373 44.3074 20.4058 44.9051C23.09 44.947 25.2059 44.9784 25.448 44.9784H41.7958C41.8695 44.9784 44.8485 44.9784 48.4802 44.9784C48.2381 44.3807 48.0698 43.7306 48.0066 43.049Z" fill="black"/>
<path d="M66.344 40.8469C66.2913 40.5743 66.2387 40.3225 66.2387 40.1443C66.2282 39.924 66.2387 39.7563 66.2387 39.5885C66.2492 39.3683 66.2492 39.1376 66.2282 38.802C66.0808 35.7191 64.3334 33.4646 61.028 32.1119C58.3753 31.0318 55.1752 30.6857 52.6068 30.4131C52.2383 30.3711 51.8804 30.3396 51.5435 30.2977C49.7224 30.088 48.154 29.0289 46.4908 27.8964C46.175 27.6866 45.8592 27.4665 45.5433 27.2568C43.638 25.9984 41.059 24.4464 38.0379 23.5866C33.0588 22.1604 27.9744 22.2967 22.7637 22.5904C21.3426 22.6638 18.0899 23.0518 15.7425 23.3663C10.2581 24.0795 10.216 24.1424 9.93178 24.6352C9.79493 24.8659 9.68966 25.2015 9.54231 25.7153C9.46864 25.9774 9.36338 26.313 9.3107 26.4388C8.92124 27.3092 8.84756 27.4455 8.3633 28.2319C7.61591 29.4379 7.28959 30.0775 6.37377 32.3635C6.21587 32.7515 6.08955 33.1081 5.97376 33.4436C5.68954 34.2406 5.44743 34.9326 4.93162 35.6876C4.84741 35.8135 4.76319 35.9288 4.67898 36.0337C3.98423 36.9355 3.5 37.7639 3.5 40.354C3.5 41.2768 3.93159 42.4722 4.22634 42.9441C4.8053 43.8879 6.13166 44.5695 7.51064 44.6953C7.28959 44.0556 7.15274 43.3741 7.13169 42.661C6.51061 42.4932 6.03691 42.1682 5.87902 41.9164C5.7527 41.7172 5.44743 40.8678 5.44743 40.3435C5.44743 38.2148 5.77375 37.7849 6.21587 37.1976C6.32114 37.0613 6.4264 36.9251 6.53166 36.7677C7.18432 35.803 7.48959 34.9641 7.80539 34.0832C7.92118 33.7582 8.03698 33.4226 8.18435 33.0766C9.05809 30.9164 9.34229 30.3501 10.0265 29.2491C10.5634 28.3893 10.6686 28.1795 11.1002 27.2358C11.216 26.9841 11.3213 26.638 11.4265 26.2606C11.4581 26.1662 11.4897 26.0403 11.5213 25.925C13.3634 25.5894 20.5742 24.6352 22.8795 24.5093C27.9113 24.2367 32.8167 24.1004 37.5115 25.4426C39.7011 26.0718 41.7854 27.0889 44.4802 28.8717C44.7855 29.0709 45.0907 29.2805 45.396 29.4903C47.175 30.7067 49.0172 31.9545 51.3225 32.2167C51.6699 32.2587 52.0278 32.2901 52.4067 32.3321C58.5332 32.9822 64.0492 33.9679 64.2913 38.8754C64.3018 39.1376 64.3018 39.3159 64.2913 39.5152C64.2913 39.6934 64.2807 39.9031 64.2913 40.1653C64.3018 40.5113 64.365 40.8573 64.4281 41.1929C64.5124 41.6124 64.6176 42.1891 64.4808 42.3674C64.0913 42.8497 62.8596 42.9231 61.7018 42.9651C61.6491 43.6466 61.4912 44.3074 61.2491 44.9155C61.3754 44.9155 61.4701 44.9155 61.5438 44.9051C63.2491 44.8526 65.0177 44.7897 65.9966 43.5733C66.7124 42.7239 66.5018 41.6439 66.344 40.8469Z" fill="black"/>
<path d="M54.8383 37.2816C51.975 37.2816 49.6592 39.5886 49.6592 42.4408C49.6592 45.2931 51.975 47.6 54.8383 47.6C57.7016 47.6 60.0174 45.2931 60.0174 42.4408C60.0069 39.5886 57.6911 37.2816 54.8383 37.2816ZM54.8383 45.7754C52.9751 45.7754 51.4593 44.2654 51.4593 42.4093C51.4593 40.5533 52.9751 39.0433 54.8383 39.0433C56.7015 39.0433 58.2174 40.5533 58.2174 42.4093C58.2069 44.2654 56.7015 45.7754 54.8383 45.7754Z" fill="black"/>
<path d="M19.8902 26.701C19.8375 26.7115 19.648 26.7534 19.5954 26.7639C18.4796 26.9946 17.1742 27.4979 16.4585 28.5046C16.269 28.7773 15.7952 29.5323 15.7532 30.1824C15.69 31.2834 16.7637 31.5771 17.6585 31.6819C17.7848 31.6924 18.3848 31.7344 19.3007 31.7868C19.4901 31.7973 19.7217 31.6924 19.7533 31.4408C19.7638 31.3568 20.227 28.4103 20.427 27.0785C20.4481 26.9317 20.4481 26.8268 20.406 26.743C20.3217 26.5961 20.0059 26.6801 19.8902 26.701Z" fill="black"/>
<path d="M29.1533 26.2396C29.0585 26.2396 28.9532 26.2291 28.8585 26.2291C25.9426 26.1557 23.8162 26.2815 22.2898 26.4179C22.2267 26.4284 22.1741 26.4284 22.1214 26.4389C21.9425 26.4494 21.7319 26.5962 21.7004 26.8163C21.553 28.0328 21.1214 31.2101 21.0899 31.4093C21.0583 31.661 21.2477 31.9022 21.5214 31.9232C21.7951 31.9441 23.7846 32.049 24.5636 32.0909C26.1111 32.1853 27.8479 32.2692 29.3848 32.3741C29.6269 32.3951 29.8585 32.1748 29.848 31.9022C29.7848 30.6019 29.5953 26.9107 29.5848 26.6801C29.5743 26.4074 29.3532 26.2396 29.1533 26.2396Z" fill="black"/>
<path d="M42.9327 30.3711C40.859 28.7667 38.6379 27.7076 36.0799 27.0889C34.9325 26.8163 33.364 26.5646 32.8904 26.5122C32.6903 26.4912 32.5851 26.5646 32.5114 26.6275C32.4166 26.7114 32.343 26.8373 32.364 27.0365C32.385 27.3092 32.7113 30.8535 32.8377 32.1748C32.8693 32.4998 33.143 32.5942 33.2482 32.6047C33.3114 32.6047 33.4272 32.6152 33.4903 32.6257C35.4588 32.741 37.3431 32.8459 39.322 32.9612C40.8906 33.0556 41.8169 33.108 43.3854 33.2025C43.6907 33.2234 44.6907 33.3492 44.996 33.108C45.8065 32.4369 43.417 30.7591 42.9327 30.3711Z" fill="black"/>
</svg>
