<svg width="70" height="70" viewBox="0 0 70 70" fill="none" xmlns="http://www.w3.org/2000/svg">
<path d="M13.4167 53.7843C12.9651 53.7843 12.6001 53.4192 12.6001 52.9676C12.6001 48.9145 15.8967 45.6176 19.9496 45.6176C20.4012 45.6176 20.7662 45.9826 20.7662 46.4343C20.7662 46.8859 20.4012 47.2509 19.9496 47.2509C16.7983 47.2509 14.2333 49.8161 14.2333 52.9676C14.2333 53.4192 13.8683 53.7843 13.4167 53.7843Z" fill="black"/>
<path d="M24.8491 47.2517L19.9494 47.2509C19.4978 47.2509 19.1328 46.885 19.1328 46.4342C19.1328 45.9826 19.4986 45.6176 19.9494 45.6176L24.8491 45.6183C25.3007 45.6183 25.6656 45.9842 25.6656 46.435C25.6656 46.8867 25.2998 47.2517 24.8491 47.2517Z" fill="black"/>
<path d="M39.6752 47.2517L36.2815 47.2501C35.8299 47.2501 35.4648 46.8842 35.4648 46.4334C35.4648 45.9817 35.8307 45.6167 36.2815 45.6167L39.6752 45.6184C40.1268 45.6184 40.4919 45.9842 40.4919 46.435C40.4919 46.8867 40.126 47.2517 39.6752 47.2517Z" fill="black"/>
<path d="M13.4183 59.5C12.9676 59.5 12.6018 59.1349 12.6018 58.6833L12.6001 52.9675C12.6001 52.5167 12.9651 52.1508 13.4167 52.1508C13.8674 52.1508 14.2333 52.5159 14.2333 52.9675L14.2349 58.6833C14.2349 59.1341 13.8699 59.5 13.4183 59.5Z" fill="black"/>
<path d="M24.8494 47.2517C24.3978 47.2517 24.0327 46.8866 24.0327 46.4349V41.7546C24.0327 41.303 24.3978 40.938 24.8494 40.938C25.3009 40.938 25.6659 41.303 25.6659 41.7546V46.4349C25.6659 46.8866 25.3009 47.2517 24.8494 47.2517Z" fill="black"/>
<path d="M36.2815 47.25C35.8299 47.25 35.4648 46.8849 35.4648 46.4333V41.7546C35.4648 41.303 35.8299 40.938 36.2815 40.938C36.7331 40.938 37.098 41.303 37.098 41.7546V46.4333C37.098 46.8849 36.7331 47.25 36.2815 47.25Z" fill="black"/>
<path d="M30.5654 43.9842C23.3612 43.9842 17.4995 38.1221 17.4995 30.9176C17.4995 30.4659 17.8646 30.1008 18.3161 30.1008C18.7677 30.1008 19.1328 30.4659 19.1328 30.9176C19.1328 37.2222 24.2611 42.3508 30.5654 42.3508C36.8695 42.3508 41.9979 37.2222 41.9979 30.9176C41.9979 30.4659 42.3629 30.1008 42.8145 30.1008C43.2661 30.1008 43.6311 30.4659 43.6311 30.9176C43.6311 38.1221 37.7695 43.9842 30.5654 43.9842Z" fill="black"/>
<path d="M18.3161 31.7342C17.8646 31.7342 17.4995 31.3692 17.4995 30.9176V21.9334C17.4995 21.4817 17.8646 21.1167 18.3161 21.1167C18.7677 21.1167 19.1328 21.4817 19.1328 21.9334V30.9176C19.1328 31.3692 18.7677 31.7342 18.3161 31.7342Z" fill="black"/>
<path d="M42.8146 31.7341C42.363 31.7341 41.998 31.3691 41.998 30.9175V21.1183C41.998 20.6667 42.363 20.3016 42.8146 20.3016C43.2662 20.3016 43.6312 20.6667 43.6312 21.1183V30.9175C43.6312 31.3691 43.2662 31.7341 42.8146 31.7341Z" fill="black"/>
<path d="M42.8146 21.935C42.363 21.935 41.998 21.5699 41.998 21.1183C41.998 18.416 39.8005 16.2183 37.0983 16.2183C36.6467 16.2183 36.2817 15.8533 36.2817 15.4017C36.2817 14.95 36.6467 14.585 37.0983 14.585C40.7004 14.585 43.6312 17.516 43.6312 21.1183C43.6312 21.5699 43.2662 21.935 42.8146 21.935Z" fill="black"/>
<path d="M37.0983 16.2183C36.6467 16.2183 36.2817 15.8533 36.2817 15.4017V11.3166C36.2817 10.8651 36.6467 10.5 37.0983 10.5C37.5499 10.5 37.9149 10.8651 37.9149 11.3166V15.4017C37.9149 15.8533 37.5499 16.2183 37.0983 16.2183Z" fill="black"/>
<path d="M37.0984 12.1334H28.9323C28.4807 12.1334 28.1157 11.7683 28.1157 11.3166C28.1157 10.865 28.4807 10.5 28.9323 10.5H37.0984C37.55 10.5 37.915 10.865 37.915 11.3166C37.915 11.7683 37.55 12.1334 37.0984 12.1334Z" fill="black"/>
<path d="M18.3161 22.75C17.8646 22.75 17.4995 22.3849 17.4995 21.9334C17.4995 15.6286 22.6279 10.5 28.9321 10.5C29.3837 10.5 29.7487 10.865 29.7487 11.3166C29.7487 11.7683 29.3837 12.1334 28.9321 12.1334C23.5286 12.1334 19.1328 16.5294 19.1328 21.9334C19.1328 22.3849 18.7677 22.75 18.3161 22.75Z" fill="black"/>
<path d="M42.8147 26.8333C42.6057 26.8333 42.3966 26.7533 42.2374 26.594L38.9709 23.3274C38.6516 23.008 38.6516 22.4919 38.9709 22.1726C39.2902 21.8533 39.8064 21.8533 40.1256 22.1726L43.3921 25.4393C43.7114 25.7586 43.7114 26.2747 43.3921 26.594C43.2329 26.7533 43.0238 26.8333 42.8147 26.8333Z" fill="black"/>
<path d="M30.5655 26.0166C25.4976 26.0166 21.337 23.5544 21.1622 23.4499C20.7759 23.2179 20.651 22.7173 20.8821 22.3302C21.1132 21.9447 21.6122 21.8165 22.0017 22.0485C22.0417 22.073 25.9631 24.3833 30.5655 24.3833C35.1679 24.3833 39.0893 22.073 39.1285 22.0493C39.5189 21.8173 40.017 21.9456 40.2481 22.331C40.4792 22.7181 40.3542 23.2187 39.968 23.4507C39.7941 23.5544 35.6333 26.0166 30.5655 26.0166Z" fill="black"/>
<path d="M18.3163 26.8335C18.1073 26.8335 17.8982 26.7534 17.739 26.5942C17.4197 26.2749 17.4197 25.7587 17.739 25.4394L21.0054 22.1727C21.3247 21.8534 21.8408 21.8534 22.1601 22.1727C22.4794 22.4921 22.4794 23.0081 22.1601 23.3275L18.8936 26.5942C18.7344 26.7534 18.5253 26.8335 18.3163 26.8335Z" fill="black"/>
<path d="M27.2981 48.8833C27.1429 48.8833 26.9853 48.8383 26.8457 48.7461L24.3959 47.1144C24.021 46.8645 23.919 46.3574 24.1697 45.9817C24.4196 45.606 24.9251 45.5056 25.3023 45.7555L27.7521 47.3872C28.127 47.6371 28.2291 48.1442 27.9784 48.5199C27.8216 48.7559 27.5619 48.8833 27.2981 48.8833Z" fill="black"/>
<path d="M27.2981 48.8834C26.9323 48.8834 26.5999 48.6359 26.5068 48.2643C26.3966 47.8265 26.6628 47.384 27.1013 47.2745L30.3678 46.4587C30.8039 46.3484 31.2481 46.6138 31.3575 47.0532C31.4677 47.4909 31.2016 47.9336 30.763 48.043L27.4965 48.8589C27.4304 48.8751 27.3635 48.8834 27.2981 48.8834Z" fill="black"/>
<path d="M33.8328 48.8833C33.569 48.8833 33.3094 48.7559 33.1526 48.5199C32.9019 48.1442 33.0039 47.6371 33.3788 47.3872L35.8286 45.7555C36.2042 45.5056 36.7105 45.606 36.9613 45.9817C37.212 46.3574 37.1099 46.8645 36.735 47.1144L34.2852 48.7461C34.1455 48.8383 33.988 48.8833 33.8328 48.8833Z" fill="black"/>
<path d="M33.8325 48.8834C33.7672 48.8834 33.7002 48.8751 33.6341 48.8589L30.3676 48.043C29.9299 47.9335 29.6637 47.4909 29.7731 47.0532C29.8817 46.6162 30.3244 46.3484 30.7628 46.4586L34.0293 47.2745C34.467 47.384 34.7332 47.8265 34.6238 48.2643C34.5307 48.635 34.1984 48.8834 33.8325 48.8834Z" fill="black"/>
<path d="M50.1674 59.5C43.8632 59.5 38.7349 54.3704 38.7349 48.0642C38.7349 41.7595 43.8632 36.63 50.1674 36.63C56.4717 36.63 61.6 41.7595 61.6 48.0642C61.6 54.3704 56.4717 59.5 50.1674 59.5ZM50.1674 38.2634C44.7639 38.2634 40.3681 42.6603 40.3681 48.0642C40.3681 53.4688 44.7639 57.8666 50.1674 57.8666C55.571 57.8666 59.9668 53.4688 59.9668 48.0642C59.9668 42.6603 55.571 38.2634 50.1674 38.2634Z" fill="black"/>
<path d="M50.1673 57.05C45.2146 57.05 41.1846 53.019 41.1846 48.0642C41.1846 43.1103 45.2146 39.0801 50.1673 39.0801C55.1201 39.0801 59.1501 43.1103 59.1501 48.0642C59.1501 53.019 55.1201 57.05 50.1673 57.05ZM50.1673 40.7134C46.1145 40.7134 42.8178 44.0111 42.8178 48.0642C42.8178 52.1182 46.1145 55.4167 50.1673 55.4167C54.2201 55.4167 57.5168 52.1182 57.5168 48.0642C57.5168 44.0111 54.2201 40.7134 50.1673 40.7134Z" fill="black"/>
<path d="M50.1676 50.5135C48.8169 50.5135 47.7178 49.4142 47.7178 48.0635C47.7178 46.7127 48.8169 45.6127 50.1676 45.6127C51.5182 45.6127 52.6174 46.7127 52.6174 48.0635C52.6174 49.4142 51.5182 50.5135 50.1676 50.5135ZM50.1676 47.2459C49.7168 47.2459 49.351 47.6127 49.351 48.0635C49.351 48.5143 49.7168 48.8801 50.1676 48.8801C50.6184 48.8801 50.9842 48.5143 50.9842 48.0635C50.9842 47.6127 50.6184 47.2459 50.1676 47.2459Z" fill="black"/>
<path d="M51.8022 56.8777C51.7973 56.8777 51.7916 56.8777 51.7867 56.8777C51.3351 56.8687 50.9766 56.4963 50.9855 56.0455C51.068 51.7049 53.9253 47.9924 58.0958 46.8066C58.5311 46.6816 58.981 46.9348 59.1043 47.3684C59.2277 47.8021 58.9761 48.2537 58.5424 48.377C55.0678 49.3652 52.6874 52.4587 52.6188 56.0757C52.6098 56.5225 52.2464 56.8777 51.8022 56.8777Z" fill="black"/>
<path d="M48.5358 56.8859C48.0915 56.8859 47.7273 56.529 47.7192 56.084C47.6546 52.4612 45.2742 49.3644 41.7947 48.3771C41.3602 48.2546 41.1087 47.803 41.232 47.3693C41.3545 46.9348 41.8077 46.6809 42.2397 46.8066C46.4167 47.9916 49.2748 51.7083 49.3524 56.0554C49.3605 56.5062 49.0013 56.8786 48.5505 56.8867C48.5456 56.8859 48.5407 56.8859 48.5358 56.8859Z" fill="black"/>
</svg>
