<svg width="70" height="70" viewBox="0 0 70 70" fill="none" xmlns="http://www.w3.org/2000/svg">
<path d="M17.0523 40.5024C14.3428 40.5024 12.1514 42.694 12.1514 45.4034C12.1514 48.1129 14.3428 50.3045 17.0523 50.3045C19.7618 50.3045 21.9533 48.1129 21.9533 45.4034C21.9533 42.694 19.7618 40.5024 17.0523 40.5024ZM17.0523 48.5712C15.2892 48.5712 13.8547 47.1367 13.8547 45.3736C13.8547 43.6104 15.2892 42.176 17.0523 42.176C18.8155 42.176 20.2499 43.6104 20.2499 45.3736C20.2499 47.1467 18.8155 48.5712 17.0523 48.5712Z" fill="black"/>
<path d="M49.2573 45.9911C46.0298 45.9911 43.4499 45.9911 43.3801 45.9911H27.9101C27.7109 45.9911 25.9079 45.9611 23.557 45.9213C23.5072 46.5688 23.3579 47.1864 23.1387 47.7542C25.6788 47.794 27.6811 47.8239 27.9101 47.8239H43.3801C43.4499 47.8239 46.2689 47.8239 49.7056 47.8239C49.4665 47.2561 49.3171 46.6386 49.2573 45.9911Z" fill="black"/>
<path d="M55.7121 40.5024C53.0026 40.5024 50.811 42.694 50.811 45.4034C50.811 48.1129 53.0026 50.3045 55.7121 50.3045C58.4215 50.3045 60.6131 48.1129 60.6131 45.4034C60.6131 42.694 58.4215 40.5024 55.7121 40.5024ZM55.7121 48.5712C53.9489 48.5712 52.5145 47.1367 52.5145 45.3736C52.5145 43.6104 53.9489 42.176 55.7121 42.176C57.4752 42.176 58.9096 43.6104 58.9096 45.3736C58.9096 47.1467 57.4752 48.5712 55.7121 48.5712Z" fill="black"/>
<path d="M10.1789 26.8254C9.9299 26.9748 9.69085 27.1641 9.48164 27.4131C8.62498 28.3992 6.82198 30.9793 6.54306 31.4475C5.95534 32.4038 6.4036 32.9616 7.15071 33.0114C8.03726 33.0711 9.01351 33.0811 9.91004 33.0811C9.95982 33.0811 10.0594 33.0811 10.1889 33.0811V26.8254H10.1789Z" fill="black"/>
<path d="M19.0445 26.4668C18.9349 26.3672 18.7955 26.3174 18.666 26.3174C15.7373 26.3174 12.6891 26.3274 12.2907 26.3274C12.0815 26.3274 11.8723 26.3373 11.6631 26.3573V33.0812C13.2768 33.0812 15.817 33.0812 18.666 33.0912C18.7357 33.0912 18.8951 33.0712 19.0245 32.9617C19.1341 32.872 19.2138 32.7225 19.2138 32.5333C19.2138 30.9893 19.2138 27.1043 19.2138 26.8653C19.2138 26.7159 19.1541 26.5665 19.0445 26.4668Z" fill="black"/>
<path d="M45.5617 26.8254C45.8108 26.9748 46.0498 27.1641 46.259 27.4131C47.1157 28.3992 48.9187 30.9793 49.1976 31.4475C49.7854 32.4038 49.3371 32.9616 48.59 33.0114C47.7034 33.0711 46.7272 33.0811 45.8307 33.0811C45.7808 33.0811 45.6813 33.0811 45.5518 33.0811V26.8254H45.5617Z" fill="black"/>
<path d="M36.6958 26.4668C36.8053 26.3672 36.9448 26.3174 37.0742 26.3174C40.0029 26.3174 43.0511 26.3274 43.4495 26.3274C43.6587 26.3274 43.8679 26.3373 44.0771 26.3573V33.0812C42.4633 33.0812 39.9232 33.0812 37.0742 33.0912C37.0046 33.0912 36.8451 33.0712 36.7156 32.9617C36.6061 32.872 36.5264 32.7225 36.5264 32.5333C36.5264 30.9893 36.5264 27.1043 36.5264 26.8653C36.5264 26.7159 36.5861 26.5665 36.6958 26.4668Z" fill="black"/>
<path d="M28.1391 26.4668C28.0296 26.3672 27.8901 26.3174 27.7606 26.3174C24.832 26.3174 21.7838 26.3274 21.3854 26.3274C21.3854 26.3274 21.3854 26.3274 21.3754 26.3274C21.0267 26.3274 20.7578 26.6163 20.7578 26.955V32.4536C20.7578 32.8022 21.0367 33.0812 21.3854 33.0812C22.9891 33.0812 25.2503 33.0812 27.7606 33.0912C27.8303 33.0912 27.9897 33.0712 28.1192 32.9617C28.2288 32.872 28.3084 32.7225 28.3084 32.5333C28.3084 30.9893 28.3084 27.1043 28.3084 26.8653C28.3084 26.7159 28.2387 26.5665 28.1391 26.4668Z" fill="black"/>
<path d="M64.4384 46.4892C63.9702 46.4892 63.6315 46.4095 63.5618 46.3895L64.0598 44.457H64.0499C64.0598 44.457 64.807 44.6164 65.2652 44.2579C65.6936 43.9192 65.7931 43.1621 65.7931 42.5943C65.7931 42.0066 65.8231 41.3889 65.8529 40.7913C66.0422 37.006 65.9127 34.6451 62.4561 33.7486C61.8285 33.5893 61.2408 33.4398 60.673 33.3003C56.3697 32.2345 53.5207 31.5272 50.383 27.6024C47.6635 24.1957 45.7709 24.2057 38.7581 24.2355C38.0608 24.2355 37.3136 24.2455 36.5168 24.2455H5.93541C5.59672 24.2654 4.07264 24.4845 4.07264 26.7756V44.1582C4.18221 44.2479 4.59063 44.4969 5.76607 44.4969H9.29235V46.4892H5.77603C2.18994 46.4892 2.09033 44.5467 2.09033 44.3176V26.7756C2.09033 24.5343 3.11635 23.4187 3.97303 22.8807C4.88947 22.303 5.79595 22.2632 5.89557 22.2632H36.5168C37.3136 22.2632 38.0508 22.2632 38.7481 22.2532C45.9302 22.2234 48.6198 22.2134 51.9369 26.3673C54.6464 29.7641 56.9575 30.3319 61.1512 31.3778C61.7289 31.5173 62.3167 31.6667 62.9542 31.836C68.2337 33.2107 68.0046 37.6535 67.8352 40.9108C67.8054 41.5085 67.7754 42.0763 67.7754 42.6142C67.7754 44.0984 67.3372 45.1842 66.4706 45.8616C65.7931 46.3696 65.0161 46.4892 64.4384 46.4892Z" fill="black"/>
</svg>
